<?xml version="1.0" encoding="UTF-8" standalone="no"?>
<!DOCTYPE svg PUBLIC "-//W3C//DTD SVG 1.1//EN" "http://www.w3.org/Graphics/SVG/1.1/DTD/svg11.dtd">
<svg width="100%" height="100%" viewBox="0 0 362 208" version="1.1" xmlns="http://www.w3.org/2000/svg" xmlns:xlink="http://www.w3.org/1999/xlink" xml:space="preserve" xmlns:serif="http://www.serif.com/" style="fill-rule:evenodd;clip-rule:evenodd;stroke-linejoin:round;stroke-miterlimit:2;">
    <g transform="matrix(1,0,0,1,-3259.27,-486.011)">
        <g transform="matrix(0.564163,0,0,1.70346,1629.87,0)">
            <g transform="matrix(6.76583,0,0,2.24074,2829.95,275.109)">
                <path d="M91.6,16.7L100,14.8L100,7.944L47.452,7.944L47.452,14.388L12,14.1C13.9,15.7 24.4,24.7 31.9,28.4C35.6,30.2 40.2,30.3 44.3,30.4C46.4,30.5 48.5,30.6 50.1,32.2C52.4,34.4 52.9,37.9 50.9,40.5C49,43.1 43.6,43.7 43.6,43.7L39,49.1L39,55.5L85.8,55.5L85.8,49.1L81.3,43.6C81.3,43.6 74.6,43.2 72.9,40.4C67.7,32.6 74.8,20.4 91.6,16.7Z" style="fill:none;fill-rule:nonzero;stroke:rgb(139,129,230);stroke-width:6.79px;"/>
            </g>
        </g>
    </g>
</svg>
