<svg width="800" height="800" viewBox="0 0 800 800" fill="none" xmlns="http://www.w3.org/2000/svg">
<path d="M403 79C404.935 79.9546 406.833 80.9871 408.699 82.0703C409.813 82.7119 410.926 83.3534 412.074 84.0144C413.278 84.7178 414.483 85.4213 415.687 86.125C416.941 86.8507 418.195 87.5757 419.45 88.3001C422.034 89.794 424.617 91.2917 427.198 92.7925C430.744 94.8535 434.298 96.8995 437.855 98.9414C449.676 105.73 461.445 112.601 473.172 119.551C479.959 123.571 486.759 127.57 493.562 131.563C494.18 131.925 494.798 132.288 495.435 132.661C504.279 137.849 513.162 142.967 522.081 148.027C526.74 150.679 531.33 153.405 535.875 156.25C540.046 158.854 544.263 161.23 548.625 163.5C556.401 167.552 563.901 172.046 571.428 176.539C580.295 181.829 589.212 187.021 598.187 192.125C607.84 197.616 617.459 203.161 627.043 208.771C633.405 212.492 639.781 216.185 646.169 219.86C650.494 222.349 654.814 224.846 659.133 227.345C660.942 228.389 662.753 229.431 664.566 230.468C666.716 231.698 668.859 232.941 671 234.188C672.702 235.168 672.702 235.168 674.438 236.168C677.158 238.113 677.828 238.955 679 242C679.259 244.535 679.259 244.535 679.271 247.457C679.286 249.131 679.285 249.131 679.3 250.838C679.3 252.063 679.301 253.289 679.301 254.551C679.309 255.853 679.317 257.155 679.325 258.496C679.347 262.113 679.357 265.729 679.364 269.346C679.374 273.245 679.395 277.144 679.415 281.043C679.459 290.459 679.483 299.876 679.505 309.292C679.514 312.837 679.523 316.382 679.533 319.927C679.575 335.55 679.611 351.172 679.631 366.795C679.635 370.618 679.64 374.441 679.645 378.264C679.646 379.214 679.648 380.164 679.649 381.143C679.67 396.545 679.729 411.947 679.803 427.35C679.878 443.159 679.92 458.967 679.928 474.777C679.934 483.655 679.954 492.532 680.013 501.41C680.062 508.969 680.081 516.527 680.061 524.085C680.051 527.943 680.056 531.799 680.1 535.656C680.147 539.837 680.125 544.014 680.096 548.195C680.121 549.416 680.145 550.637 680.171 551.895C680.034 559.907 680.034 559.907 677.086 563.024C674.783 564.588 672.514 565.81 670 567C668.451 567.896 666.907 568.801 665.371 569.719C663.728 570.649 662.084 571.576 660.438 572.5C658.575 573.555 656.713 574.611 654.852 575.668C653.89 576.214 652.929 576.76 651.938 577.322C647.043 580.118 642.178 582.965 637.312 585.813C625.67 592.62 613.991 599.364 602.304 606.096C598.974 608.015 595.645 609.937 592.316 611.859C582.033 617.798 571.746 623.73 561.437 629.625C560.611 630.098 559.785 630.57 558.934 631.057C555.132 633.229 551.319 635.37 547.473 637.461C544.441 639.136 541.555 640.928 538.691 642.875C533.276 646.548 527.619 649.761 521.937 653C519.619 654.329 517.302 655.658 514.984 656.988C514.4 657.323 513.816 657.658 513.214 658.003C507.352 661.365 501.519 664.774 495.687 668.188C487.509 672.969 479.305 677.702 471.073 682.391C462.927 687.034 454.807 691.723 446.688 696.414C438.815 700.96 430.929 705.48 423.023 709.969C422.242 710.413 421.461 710.858 420.656 711.316C419.897 711.748 419.138 712.18 418.355 712.625C414.97 714.601 411.654 716.686 408.342 718.781C405.877 720.064 403.736 720.591 401 721C401 721.66 401 722.32 401 723C396.486 721.666 392.862 719.863 388.875 717.375C381.464 712.823 373.932 708.492 366.375 704.188C365.143 703.485 363.912 702.782 362.68 702.08C357.258 698.989 351.833 695.904 346.402 692.828C335.867 686.85 325.457 680.689 315.087 674.428C308.395 670.4 301.648 666.517 294.798 662.766C287.602 658.814 280.524 654.669 273.441 650.521C266.017 646.175 258.578 641.858 251.125 637.562C249.508 636.63 249.508 636.63 247.858 635.679C244.572 633.786 241.286 631.893 238 630C233.625 627.48 229.249 624.959 224.875 622.438C223.8 621.818 222.724 621.198 221.616 620.559C214.333 616.357 207.069 612.122 199.812 607.875C191.138 602.8 182.412 597.825 173.653 592.898C164.643 587.821 155.712 582.611 146.789 577.383C142.981 575.153 139.164 572.939 135.336 570.742C134.455 570.236 133.573 569.729 132.665 569.208C131.015 568.261 129.363 567.316 127.71 566.375C126.62 565.748 126.62 565.748 125.508 565.109C124.875 564.748 124.242 564.387 123.59 564.015C122 563 122 563 120 561C119.748 558.703 119.748 558.703 119.745 555.765C119.737 554.09 119.737 554.09 119.728 552.38C119.733 550.525 119.734 550.525 119.739 548.631C119.735 547.325 119.732 546.019 119.728 544.673C119.717 541.034 119.72 537.396 119.724 533.758C119.726 529.839 119.717 525.92 119.71 522.001C119.697 514.319 119.695 506.637 119.698 498.954C119.699 492.712 119.698 486.471 119.693 480.229C119.693 479.342 119.692 478.455 119.692 477.541C119.69 475.739 119.689 473.938 119.688 472.136C119.677 455.224 119.679 438.313 119.685 421.401C119.691 405.916 119.679 390.431 119.66 374.945C119.641 359.061 119.633 343.176 119.636 327.291C119.638 318.367 119.636 309.443 119.622 300.519C119.61 292.922 119.608 285.324 119.62 277.727C119.626 273.848 119.627 269.97 119.615 266.091C119.603 261.892 119.613 257.694 119.626 253.496C119.618 252.261 119.611 251.026 119.603 249.753C119.611 248.634 119.618 247.514 119.625 246.361C119.625 245.391 119.625 244.421 119.625 243.422C120.067 240.57 120.758 239.748 123 238C124.37 237.088 125.771 236.222 127.191 235.391C128.04 234.891 128.889 234.392 129.763 233.877C130.687 233.34 131.611 232.803 132.562 232.25C133.533 231.681 134.503 231.113 135.502 230.527C144.042 225.533 152.612 220.591 161.186 215.657C168.432 211.487 175.659 207.285 182.875 203.063C192.143 197.642 201.454 192.301 210.781 186.985C221.041 181.137 231.252 175.21 241.445 169.246C246.6 166.231 251.766 163.237 256.937 160.25C262.661 156.943 268.37 153.611 274.062 150.25C282.318 145.377 290.625 140.594 298.932 135.81C306.302 131.563 313.657 127.292 321 123C329.462 118.054 337.944 113.142 346.437 108.25C353.556 104.149 360.67 100.041 367.75 95.875C368.395 95.4972 369.041 95.1195 369.706 94.7302C373.75 92.355 377.756 89.9243 381.75 87.4649C382.744 86.8598 383.738 86.2548 384.763 85.6314C386.717 84.4413 388.665 83.2395 390.604 82.0249C391.493 81.4869 392.381 80.9489 393.297 80.3945C394.478 79.6652 394.478 79.6652 395.683 78.9212C398.653 77.7405 399.979 78.0078 403 79Z" fill="#378BFD"/>
<path d="M538 159C543.442 160.561 548.089 163.067 553 165.812C553.874 166.298 554.749 166.783 555.65 167.282C562.96 171.363 570.174 175.601 577.368 179.882C584.503 184.128 591.678 188.297 598.875 192.438C608.25 197.832 617.603 203.26 626.941 208.719C633.339 212.456 639.751 216.167 646.174 219.862C650.497 222.35 654.816 224.847 659.133 227.345C660.942 228.389 662.753 229.431 664.566 230.468C666.716 231.698 668.859 232.941 671 234.188C672.134 234.841 673.269 235.495 674.438 236.168C677.131 238.094 677.804 239.007 679 242C679.25 243.97 679.25 243.97 679.249 246.08C679.253 246.889 679.258 247.697 679.263 248.53C679.255 249.853 679.255 249.853 679.247 251.204C679.25 252.145 679.252 253.087 679.255 254.057C679.26 257.221 679.252 260.384 679.243 263.548C679.244 265.813 679.246 268.078 679.249 270.343C679.254 276.502 679.246 282.662 679.236 288.821C679.227 295.262 679.229 301.704 679.229 308.146C679.228 318.967 679.22 329.789 679.206 340.611C679.192 351.74 679.185 362.869 679.185 373.998C679.185 374.683 679.185 375.368 679.185 376.074C679.185 376.757 679.186 377.441 679.186 378.146C679.186 390.176 679.181 402.207 679.173 414.238C679.169 419.359 679.167 424.48 679.167 429.602C679.166 435.636 679.16 441.669 679.15 447.703C679.147 449.917 679.146 452.131 679.146 454.346C679.147 457.369 679.141 460.392 679.134 463.415C679.135 464.291 679.137 465.167 679.138 466.069C679.088 478.731 679.088 478.731 676.305 481.977C667.845 487.716 658.954 492.642 650.027 497.613C644.335 500.793 638.715 504.081 633.125 507.438C632.336 507.909 631.547 508.38 630.735 508.866C626.053 511.688 621.555 514.662 617.136 517.883C614.59 519.214 612.834 519.21 610 519C609.009 502.423 608.693 485.852 608.438 469.25C608.394 466.595 608.351 463.94 608.307 461.285C608.201 454.857 608.099 448.428 608 442C606.706 442.62 605.415 443.246 604.125 443.875C603.406 444.223 602.686 444.571 601.945 444.93C599.849 445.966 599.849 445.966 598 448C596.374 448.689 594.746 449.376 593.114 450.049C588.891 451.949 584.937 454.363 580.938 456.688C579.077 457.763 577.216 458.839 575.355 459.914C574.448 460.439 573.541 460.964 572.607 461.505C570.267 462.847 567.915 464.162 565.551 465.461C564.901 465.821 564.25 466.181 563.58 466.552C561.864 467.5 560.143 468.44 558.422 469.379C555.716 470.832 555.716 470.832 555 474C552.902 474.895 552.902 474.895 549.938 475.812C539.751 479.54 530.732 485.387 521.458 490.941C517.819 493.115 514.157 495.249 510.492 497.379C509.212 498.124 507.932 498.869 506.652 499.614C504.795 500.695 502.938 501.776 501.08 502.854C495.722 505.966 490.375 509.074 485.196 512.478C484.569 512.89 483.941 513.302 483.294 513.727C482.095 514.52 480.9 515.32 479.711 516.129C476.448 518.292 473.833 519.354 470 520C469.212 509.853 468.841 499.787 468.832 489.605C468.829 488.197 468.825 486.788 468.822 485.379C468.816 482.464 468.814 479.55 468.815 476.635C468.815 472.897 468.801 469.159 468.784 465.421C468.773 462.529 468.771 459.637 468.771 456.745C468.77 455.365 468.766 453.985 468.758 452.606C468.748 450.692 468.752 448.778 468.757 446.864C468.756 445.777 468.754 444.689 468.753 443.569C469 441 469 441 471 439C472.664 438.327 474.331 437.662 476 437C478.638 435.473 481.21 433.861 483.793 432.242C486 431 486 431 488 431C488.33 430.01 488.66 429.02 489 428C491.547 426.465 491.547 426.465 494.75 424.938C495.797 424.431 496.843 423.924 497.922 423.402C500.59 422.187 503.276 421.083 506 420C508.717 418.542 510.737 417.29 512.812 415C515.374 412.658 517.61 411.893 520.848 410.777C527.628 408.329 533.923 405.116 538 399C538.255 396.515 538.397 394.133 538.449 391.642C538.472 390.895 538.495 390.149 538.518 389.379C538.74 381.569 538.834 373.755 538.92 365.943C538.964 362.24 539.048 358.541 539.166 354.839C539.309 350.361 539.382 345.887 539.406 341.407C539.427 339.706 539.472 338.005 539.541 336.305C540.161 327.292 540.161 327.292 536.604 319.399C532.772 316.194 528.507 314.096 524 312C523.01 311.34 522.02 310.68 521 310C521 309.34 521 308.68 521 308C519.979 307.629 519.979 307.629 518.938 307.25C516.078 306.033 513.478 304.563 510.801 302.992C508.814 301.853 508.814 301.853 505.812 300.688C491.369 294.738 491.369 294.738 489 290C486.975 289.348 486.975 289.348 485 289C485 288.34 485 287.68 485 287C484.216 286.856 483.432 286.711 482.625 286.562C480 286 480 286 478 285C478 284.34 478 283.68 478 283C476.35 282.67 474.7 282.34 473 282C472.75 279.688 472.75 279.688 473 277C475.57 274.327 478.724 273.254 482.109 271.859C484.73 270.668 487.07 269.151 489.488 267.598C492.859 265.454 496.269 263.379 499.687 261.312C500.329 260.92 500.971 260.527 501.633 260.123C505.019 258.078 508.297 256.421 512 255C513.229 254.284 514.438 253.534 515.625 252.75C519.768 250.093 524.049 247.752 528.387 245.43C529.249 244.958 530.111 244.486 531 244C532.392 243.252 532.392 243.252 533.812 242.488C534.534 241.997 535.256 241.506 536 241C536.418 238.373 536.418 238.373 536 236C535.484 235.897 534.969 235.794 534.438 235.688C529.937 234.418 525.886 232.59 522 230C522 229.34 522 228.68 522 228C520.329 227.536 520.329 227.536 518.625 227.062C515 226 515 226 513 225C513 224.34 513 223.68 513 223C512.302 222.903 511.603 222.805 510.884 222.705C507.468 221.87 504.912 220.471 501.859 218.727C501.008 218.24 501.008 218.24 500.139 217.743C498.947 217.059 497.757 216.372 496.569 215.681C494.748 214.624 492.918 213.585 491.086 212.547C489.926 211.879 488.768 211.209 487.609 210.539C486.557 209.933 485.505 209.326 484.421 208.702C482 207 482 207 481 204C478.682 203.283 476.347 202.618 474 202C472 200 472 200 471.937 198.062C473.349 195.322 475.124 194.954 477.914 193.906C480.281 192.878 482.249 191.587 484.375 190.125C490.309 186.054 496.32 182.672 503 180C504.353 179.027 505.687 178.026 507 177C508.658 175.985 510.327 174.989 512 174C512.617 173.632 513.234 173.264 513.87 172.885C516.015 171.607 518.163 170.335 520.312 169.062C521.034 168.633 521.755 168.203 522.498 167.76C526.105 165.628 529.723 163.602 533.48 161.746C536.748 160.358 536.748 160.358 538 159Z" fill="#477F17"/>
<path d="M536 319C536.99 319.66 537.98 320.32 539 321C539.313 323.51 539.43 325.777 539.42 328.292C539.428 329.043 539.437 329.795 539.446 330.569C539.469 333.062 539.47 335.554 539.469 338.047C539.476 339.778 539.484 341.51 539.492 343.242C539.505 346.877 539.507 350.511 539.501 354.146C539.495 358.798 539.526 363.449 539.566 368.101C539.592 371.68 539.595 375.259 539.591 378.838C539.593 380.553 539.603 382.267 539.62 383.981C539.643 386.385 539.633 388.787 539.615 391.19C539.628 391.895 539.642 392.6 539.655 393.326C539.56 398.932 537.804 401.184 534 405C531.754 406.574 531.754 406.574 529.562 407.688C528.393 408.291 528.393 408.291 527.199 408.906C526.473 409.267 525.748 409.628 525 410C523.969 410.557 522.938 411.114 521.875 411.688C519 413 519 413 515.188 414C513.61 414.495 513.61 414.495 512 415C511.505 416.485 511.505 416.485 511 418C506.806 421.334 502.38 423.146 497.402 425.062C492.097 427.048 492.097 427.048 487.641 430.402C485.66 432.331 483.568 433.596 481.188 435C480.356 435.495 479.525 435.99 478.668 436.5C475.83 438.095 472.912 439.544 470 441C470 467.07 470 493.14 470 520C474.477 518.209 478.232 516.083 482.25 513.5C490.721 508.134 499.335 503.046 508 498C509.996 496.835 511.992 495.669 513.988 494.504C519.008 491.573 524.028 488.643 529.054 485.721C531.114 484.518 533.169 483.305 535.22 482.085C536.273 481.462 537.325 480.838 538.41 480.195C539.359 479.63 540.308 479.064 541.285 478.481C545.452 476.208 550.172 474 555 474C555.092 473.387 555.184 472.775 555.279 472.144C556.191 469.431 557.045 469.017 559.543 467.703C560.649 467.107 560.649 467.107 561.778 466.499C562.573 466.087 563.368 465.675 564.188 465.25C565.832 464.368 567.477 463.485 569.121 462.602C570.354 461.947 570.354 461.947 571.613 461.278C575.025 459.451 578.391 457.548 581.75 455.625C583.351 454.716 583.351 454.716 584.984 453.789C587.104 452.531 589.186 451.207 591.234 449.836C593.809 448.127 596.15 447.14 599 446C600.031 445.299 601.062 444.598 602.125 443.875C605 442 605 442 608 442C608.977 444.932 609.152 446.921 609.205 449.98C609.225 450.997 609.245 452.013 609.266 453.06C609.291 454.714 609.291 454.714 609.316 456.402C609.337 457.549 609.358 458.696 609.379 459.878C609.423 462.318 609.464 464.759 609.503 467.199C609.561 470.864 609.627 474.529 609.693 478.193C609.932 491.797 610.062 505.395 610 519C613.544 517.893 616.715 516.77 619.855 514.785C620.55 514.352 621.245 513.919 621.961 513.473C622.696 513.007 623.43 512.542 624.188 512.062C625.796 511.062 627.405 510.063 629.016 509.066C629.84 508.556 630.664 508.046 631.514 507.52C635.45 505.114 639.439 502.802 643.438 500.5C644.215 500.052 644.992 499.604 645.792 499.143C648.194 497.76 650.597 496.38 653 495C656.439 493.024 659.876 491.044 663.312 489.062C664.095 488.614 664.877 488.165 665.683 487.703C669.897 485.274 673.988 482.749 678 480C679.202 493.44 679.427 506.872 679.548 520.355C679.584 524.307 679.638 528.258 679.734 532.209C679.827 536.069 679.875 539.927 679.893 543.789C679.907 545.249 679.936 546.71 679.982 548.17C680.32 559.498 680.32 559.498 677.097 563.164C674.785 564.732 672.553 565.877 670 567C668.449 567.892 666.904 568.796 665.371 569.719C663.728 570.649 662.084 571.576 660.438 572.5C658.575 573.555 656.713 574.611 654.852 575.668C653.89 576.214 652.929 576.759 651.938 577.322C647.043 580.118 642.178 582.965 637.312 585.812C625.67 592.62 613.991 599.364 602.304 606.096C598.974 608.015 595.645 609.937 592.316 611.859C582.033 617.798 571.746 623.73 561.438 629.625C560.611 630.098 559.785 630.57 558.934 631.057C556.625 632.376 554.314 633.689 552 635C551.182 635.465 550.363 635.93 549.52 636.409C548.721 636.859 547.921 637.31 547.098 637.773C546.382 638.177 545.667 638.581 544.93 638.998C543 640 543 640 540 641C539.67 615.59 539.34 590.18 539 564C534.893 565.369 532.011 566.388 528.418 568.469C527.577 568.952 526.736 569.436 525.869 569.935C524.984 570.451 524.099 570.968 523.188 571.5C522.262 572.035 521.336 572.569 520.383 573.12C513.889 576.878 507.419 580.677 500.959 584.492C495.561 587.68 490.128 590.798 484.68 593.898C480.525 596.266 476.387 598.664 472.25 601.062C436.608 621.712 436.608 621.712 420.735 630.613C415.463 633.576 410.262 636.627 405.111 639.799C403 641 403 641 400 642C400 562.14 400 482.28 400 400C405.28 397.03 410.56 394.06 416 391C417.98 389.68 419.96 388.36 422 387C423.658 386.312 425.325 385.644 427 385C428.674 384.013 430.34 383.011 432 382C433.574 381.093 435.151 380.19 436.73 379.293C438.06 378.536 438.06 378.536 439.416 377.764C441.244 376.724 443.072 375.685 444.9 374.646C450.149 371.656 455.351 368.6 460.524 365.48C464.69 362.99 468.907 360.589 473.125 358.188C474.034 357.669 474.942 357.151 475.879 356.616C481.429 353.453 486.991 350.312 492.562 347.188C501.073 342.41 509.55 337.611 517.75 332.312C523.927 328.349 529.946 325.116 537 323C536.67 321.68 536.34 320.36 536 319Z" fill="#154692"/>
<path d="M264 159C264.589 159.603 265.178 160.207 265.785 160.828C268.439 163.431 271.181 164.961 274.437 166.75C275.691 167.447 276.944 168.147 278.195 168.848C278.829 169.202 279.462 169.557 280.114 169.922C283.06 171.606 285.932 173.395 288.812 175.188C293.153 177.882 297.52 180.469 302.008 182.91C303.943 183.969 305.847 185.072 307.75 186.188C310.864 188.034 310.864 188.034 313.875 189.063C314.576 189.372 315.277 189.681 316 190C316.33 190.99 316.66 191.98 317 193C319.329 194.027 319.329 194.027 322.062 194.688C323.441 195.065 323.441 195.065 324.848 195.449C325.558 195.631 326.268 195.813 327 196C327.156 198.367 327.156 198.367 327 201C323.922 203.617 321.086 204.969 317.285 206.328C312.857 207.96 308.96 210.179 304.937 212.625C304.203 213.065 303.468 213.504 302.711 213.957C300.471 215.299 298.235 216.649 296 218C294.073 219.155 292.145 220.307 290.216 221.459C288.383 222.558 286.555 223.664 284.727 224.77C282.116 226.344 279.484 227.875 276.836 229.387C276.152 229.782 275.469 230.178 274.764 230.586C273.46 231.34 272.15 232.085 270.833 232.819C267.032 235.033 264.917 237.028 263 241C263.577 241.277 264.155 241.554 264.75 241.84C267.635 243.327 270.291 245.096 273 246.879C275.008 248.004 276.752 248.554 279 249C279 249.66 279 250.32 279 251C279.959 251.371 279.959 251.371 280.937 251.75C285 253.408 288.997 255.204 293 257C293 257.66 293 258.32 293 259C293.71 259.268 294.421 259.536 295.152 259.813C298.083 261.035 300.788 262.457 303.562 264C306.681 265.73 309.796 267.432 313 269C313 269.66 313 270.32 313 271C313.835 271.245 314.671 271.49 315.531 271.742C319.469 273.17 322.886 275.032 326.5 277.125C327.539 277.718 327.539 277.718 328.599 278.323C330.736 279.543 332.868 280.771 335 282C336.941 283.116 338.883 284.23 340.826 285.343C342.524 286.317 344.219 287.295 345.914 288.273C348.901 289.945 351.926 291.495 355 293C355 293.66 355 294.32 355 295C355.866 295.268 356.732 295.536 357.625 295.813C360.918 296.971 363.911 298.382 367 300C367 300.66 367 301.32 367 302C367.681 302.268 368.361 302.536 369.062 302.813C372.397 304.161 375.697 305.575 379 307C379 307.66 379 308.32 379 309C379.695 309.255 380.39 309.51 381.105 309.773C384.353 311.15 387.28 312.825 390.312 314.625C391.381 315.257 392.45 315.888 393.551 316.539C394.359 317.021 395.167 317.503 396 318C395.638 320.54 395.378 321.694 393.349 323.337C392.287 323.92 392.287 323.92 391.203 324.516C390.416 324.958 389.628 325.401 388.816 325.857C387.969 326.316 387.123 326.776 386.25 327.25C384.504 328.226 382.76 329.204 381.016 330.184C380.158 330.662 379.3 331.14 378.416 331.632C375.22 333.442 372.112 335.362 369 337.313C364.513 340.104 359.968 342.673 355.301 345.148C352.501 346.719 349.773 348.353 347.043 350.039C346.153 350.586 345.263 351.133 344.346 351.696C342.555 352.801 340.771 353.915 338.992 355.038C338.162 355.549 337.332 356.06 336.477 356.586C335.735 357.05 334.993 357.515 334.229 357.994C331.655 359.156 329.794 359.19 327 359C327 358.01 327 357.02 327 356C326.175 355.912 325.35 355.825 324.5 355.734C320.256 354.844 316.84 353.213 313 351.25C312.314 350.915 311.628 350.58 310.922 350.234C307.568 348.544 304.614 346.806 301.762 344.352C299.358 342.305 297.707 341.211 294.812 340.125C290.173 338.197 286.18 335.626 281.988 332.875C277.667 330.164 273.177 327.832 268.652 325.48C266 324 266 324 264 322C262.68 321.67 261.36 321.34 260 321C260 347.07 260 373.14 260 400C255.125 399.025 253.3 398.09 249.375 395.313C243.775 391.456 238.03 388.134 232 385C232 384.34 232 383.68 232 383C231.319 382.753 230.639 382.505 229.937 382.25C227.155 381.066 224.621 379.669 222.039 378.098C219.847 376.875 219.847 376.875 216.801 375.664C212.536 373.869 208.572 371.613 204.562 369.313C203.831 368.897 203.099 368.481 202.346 368.053C200.562 367.038 198.781 366.02 197 365C197 364.34 197 363.68 197 363C196.288 362.897 195.577 362.795 194.843 362.689C191.631 361.911 189.347 360.669 186.508 358.98C185.473 358.37 184.438 357.76 183.371 357.131C182.3 356.49 181.229 355.848 180.125 355.188C178.003 353.931 175.88 352.674 173.758 351.418C172.764 350.827 171.771 350.236 170.747 349.626C167.518 347.715 164.267 345.847 161 344C161 343.34 161 342.68 161 342C158.03 341.01 155.06 340.02 152 339C152 338.34 152 337.68 152 337C151.275 336.888 150.551 336.777 149.804 336.661C146.846 335.964 144.753 334.937 142.129 333.418C141.225 332.898 140.32 332.378 139.389 331.842C138.456 331.296 137.523 330.75 136.562 330.188C135.634 329.653 134.705 329.119 133.748 328.568C131.151 327.066 128.563 325.56 126 324C124.973 323.466 123.946 322.932 122.887 322.382C120 320 120 320 119.258 316.54C119.232 315.141 119.238 313.741 119.271 312.342C119.266 311.575 119.26 310.809 119.254 310.019C119.243 307.49 119.275 304.963 119.309 302.434C119.312 300.675 119.314 298.917 119.313 297.159C119.317 293.476 119.342 289.793 119.383 286.111C119.434 281.387 119.445 276.664 119.443 271.94C119.444 268.31 119.46 264.681 119.482 261.051C119.491 259.309 119.497 257.567 119.499 255.825C119.506 253.393 119.532 250.961 119.564 248.529C119.563 247.807 119.561 247.086 119.56 246.342C119.654 241.465 119.654 241.465 121.406 239.11C123.3 237.791 125.198 236.558 127.191 235.391C128.04 234.891 128.889 234.392 129.763 233.877C130.687 233.34 131.611 232.803 132.562 232.25C133.533 231.681 134.503 231.113 135.502 230.527C144.042 225.533 152.612 220.591 161.186 215.657C168.433 211.487 175.659 207.285 182.875 203.063C192.141 197.643 201.45 192.302 210.776 186.988C219.17 182.204 227.535 177.376 235.875 172.5C236.86 171.926 237.845 171.351 238.86 170.76C243.083 168.296 247.3 165.825 251.496 163.316C252.768 162.565 254.04 161.814 255.312 161.063C256.884 160.121 256.884 160.121 258.488 159.16C261 158 261 158 264 159Z" fill="#87E534"/>
<path d="M540 564C540.209 574.066 540.369 584.131 540.466 594.199C540.513 598.874 540.577 603.548 540.679 608.222C540.777 612.735 540.831 617.247 540.854 621.761C540.871 623.481 540.903 625.201 540.952 626.92C541.317 640.379 541.317 640.379 538.115 644.32C535.796 645.896 533.604 646.977 531 648C530.092 648.545 529.184 649.091 528.248 649.652C527.484 650.076 526.72 650.501 525.934 650.938C525.048 651.433 524.163 651.928 523.251 652.438C522.323 652.953 521.394 653.469 520.438 654C512.204 658.611 504.017 663.292 495.875 668.062C487.635 672.887 479.371 677.664 471.074 682.391C462.927 687.034 454.807 691.723 446.688 696.414C438.815 700.96 430.929 705.48 423.023 709.969C421.852 710.636 421.852 710.636 420.656 711.316C419.897 711.748 419.138 712.18 418.355 712.625C414.97 714.601 411.654 716.686 408.342 718.781C405.877 720.064 403.736 720.591 401 721C401 721.66 401 722.32 401 723C396.486 721.666 392.862 719.863 388.875 717.375C381.464 712.823 373.932 708.492 366.375 704.188C365.161 703.495 363.947 702.803 362.733 702.111C358.055 699.444 353.375 696.782 348.695 694.12C346.664 692.965 344.633 691.808 342.602 690.652C340.78 689.613 338.956 688.577 337.132 687.542C336.332 687.086 335.532 686.63 334.707 686.16C333.663 685.567 333.663 685.567 332.597 684.961C331 684 331 684 330 683C329.905 680.505 329.874 678.038 329.886 675.543C329.886 674.762 329.886 673.982 329.886 673.178C329.887 670.586 329.895 667.994 329.902 665.402C329.904 663.61 329.906 661.818 329.907 660.026C329.91 655.299 329.92 650.573 329.931 645.846C329.942 641.027 329.946 636.208 329.951 631.389C329.962 621.926 329.979 612.463 330 603C333.997 604.295 337.549 605.7 341.211 607.766C342.197 608.319 343.183 608.873 344.198 609.443C345.247 610.039 346.295 610.636 347.375 611.25C348.469 611.868 349.563 612.485 350.69 613.121C360.328 618.579 369.904 624.141 379.457 629.746C380.356 630.272 381.256 630.798 382.182 631.339C384.192 632.524 386.193 633.722 388.189 634.93C389.772 635.879 389.772 635.879 391.387 636.848C392.819 637.716 392.819 637.716 394.28 638.602C396.977 639.988 398.981 640.773 402 641C403.879 640.304 403.879 640.304 405.559 639C408.862 636.758 412.199 634.68 415.66 632.688C416.689 632.094 417.718 631.5 418.778 630.888C420.404 629.954 420.404 629.954 422.062 629C423.777 628.012 423.777 628.012 425.527 627.004C433.808 622.238 442.123 617.535 450.449 612.848C458.397 608.364 466.282 603.774 474.156 599.162C480.622 595.378 487.112 591.64 493.625 587.938C501.9 583.233 510.108 578.421 518.28 573.539C520.845 572.012 523.419 570.501 526 569C526.986 568.422 527.972 567.844 528.987 567.249C530.459 566.41 530.459 566.41 531.961 565.555C532.853 565.041 533.746 564.528 534.666 564C537 563 537 563 540 564Z" fill="#A8ACAE"/>
<path d="M538 159C543.442 160.561 548.089 163.067 553 165.812C553.874 166.298 554.749 166.783 555.65 167.282C562.96 171.363 570.174 175.601 577.368 179.882C584.503 184.128 591.678 188.297 598.875 192.438C608.25 197.832 617.603 203.26 626.941 208.719C633.339 212.457 639.752 216.167 646.174 219.862C650.495 222.349 654.81 224.844 659.125 227.34C661.736 228.848 664.354 230.344 666.973 231.84C668.357 232.642 669.741 233.446 671.125 234.25C672.048 234.77 672.048 234.77 672.99 235.3C674.633 236.266 674.633 236.266 677 238C677 238.99 677 239.98 677 241C675.059 242.5 675.059 242.5 672.438 244C671.591 244.495 670.744 244.99 669.871 245.5C667 247 667 247 663.637 248.426C659.721 250.121 656.076 252.077 652.375 254.188C651.343 254.77 651.343 254.77 650.291 255.365C644.586 258.61 639.013 262.043 633.477 265.566C631 267 631 267 629 267C628.67 267.99 628.34 268.98 628 270C626.37 270.747 624.731 271.481 623.062 272.138C615.007 275.504 607.514 280.593 600 285C597.938 286.209 595.876 287.418 593.812 288.625C592.83 289.2 591.848 289.775 590.836 290.367C587.539 292.265 584.203 294.081 580.84 295.859C578.942 296.939 578.942 296.939 577.438 298.562C575.618 300.382 573.603 301.035 571.242 301.973C567.171 303.838 563.4 306.256 559.574 308.574C557 310 557 310 555 310C555 310.66 555 311.32 555 312C554.186 312.273 554.186 312.273 553.355 312.551C552.64 312.802 551.925 313.054 551.188 313.312C550.48 313.556 549.772 313.8 549.043 314.051C546.939 314.886 546.939 314.886 545.477 316.527C543.137 318.861 541.055 319.168 537.828 319.473C531.503 318.416 525.917 313.938 521 310C521 309.34 521 308.68 521 308C519.979 307.629 519.979 307.629 518.938 307.25C516.078 306.033 513.478 304.563 510.801 302.992C508.814 301.853 508.814 301.853 505.812 300.688C491.369 294.738 491.369 294.738 489 290C486.975 289.348 486.975 289.348 485 289C485 288.34 485 287.68 485 287C484.216 286.856 483.433 286.711 482.625 286.562C480 286 480 286 478 285C478 284.34 478 283.68 478 283C476.35 282.67 474.7 282.34 473 282C472.75 279.688 472.75 279.688 473 277C475.57 274.327 478.724 273.254 482.109 271.859C484.73 270.668 487.07 269.151 489.488 267.598C492.859 265.454 496.269 263.379 499.688 261.312C500.329 260.92 500.971 260.527 501.633 260.123C505.019 258.078 508.297 256.421 512 255C513.229 254.284 514.438 253.534 515.625 252.75C519.768 250.093 524.049 247.752 528.387 245.43C529.249 244.958 530.111 244.486 531 244C532.392 243.252 532.392 243.252 533.812 242.488C534.534 241.997 535.256 241.506 536 241C536.418 238.373 536.418 238.373 536 236C535.484 235.897 534.969 235.794 534.438 235.688C529.937 234.418 525.886 232.59 522 230C522 229.34 522 228.68 522 228C520.329 227.536 520.329 227.536 518.625 227.062C515 226 515 226 513 225C513 224.34 513 223.68 513 223C512.302 222.903 511.603 222.805 510.884 222.705C507.468 221.87 504.912 220.471 501.859 218.727C501.008 218.24 501.008 218.24 500.139 217.743C498.947 217.059 497.757 216.372 496.569 215.681C494.748 214.624 492.918 213.585 491.086 212.547C489.926 211.879 488.768 211.209 487.609 210.539C486.557 209.933 485.505 209.326 484.421 208.702C482 207 482 207 481 204C478.682 203.283 476.347 202.618 474 202C472 200 472 200 471.938 198.062C473.349 195.322 475.124 194.954 477.914 193.906C480.281 192.878 482.249 191.587 484.375 190.125C490.309 186.054 496.32 182.672 503 180C504.353 179.027 505.687 178.026 507 177C508.658 175.985 510.327 174.989 512 174C512.617 173.632 513.234 173.264 513.87 172.885C516.015 171.607 518.163 170.335 520.312 169.062C521.034 168.633 521.755 168.203 522.498 167.76C526.105 165.628 529.723 163.602 533.48 161.746C536.748 160.358 536.748 160.358 538 159Z" fill="#7DD92E"/>
<path d="M260 482C264.255 482.571 266.985 484.041 270.563 486.375C275.966 489.82 281.488 492.955 287.125 496C299.965 502.965 312.472 510.495 325 518C325.868 518.424 326.735 518.847 327.629 519.283C330 521 330 521 330.639 523.325C330.649 524.699 330.649 524.699 330.659 526.1C330.679 527.144 330.699 528.187 330.719 529.262C330.715 530.397 330.711 531.531 330.707 532.699C330.722 533.881 330.737 535.063 330.753 536.28C330.796 540.083 330.805 543.885 330.813 547.688C330.836 550.169 330.861 552.65 330.889 555.131C331.042 570.42 331.026 585.71 331 601C326.929 600.48 323.973 599.702 320.48 597.551C319.636 597.04 318.791 596.528 317.921 596.001C316.568 595.165 316.568 595.165 315.188 594.312C313.219 593.121 311.249 591.932 309.277 590.746C308.251 590.128 307.225 589.511 306.167 588.875C300.92 585.769 295.584 582.827 290.25 579.875C282.593 575.618 274.989 571.296 267.5 566.75C266.746 566.296 265.992 565.842 265.216 565.375C260.123 562.246 260.123 562.246 259 560C258.903 557.791 258.872 555.578 258.871 553.366C258.869 552.685 258.867 552.003 258.865 551.301C258.861 549.041 258.864 546.78 258.867 544.52C258.867 542.947 258.866 541.375 258.864 539.803C258.863 536.502 258.865 533.2 258.87 529.899C258.875 525.68 258.872 521.462 258.866 517.243C258.862 513.992 258.864 510.742 258.866 507.491C258.867 505.937 258.866 504.382 258.864 502.828C258.861 500.645 258.865 498.463 258.871 496.281C258.871 495.041 258.872 493.801 258.873 492.524C259.002 488.952 259.43 485.526 260 482Z" fill="#FBFDFE"/>
<path d="M120 397C120.433 397.928 120.433 397.928 120.875 398.875C122.866 402.635 125.278 403.627 129.113 405.203C131.807 406.341 134.398 407.667 137 409C137 409.66 137 410.32 137 411C137.825 411.248 138.65 411.495 139.5 411.75C143.524 413.187 147.22 415.024 151 417C151 417.66 151 418.32 151 419C152.32 419 153.64 419 155 419C155 419.66 155 420.32 155 421C156.361 421.433 156.361 421.433 157.75 421.875C160.322 422.765 162.613 423.715 165 425C165 425.66 165 426.32 165 427C165.866 427.268 166.733 427.536 167.625 427.812C170.918 428.971 173.911 430.382 177 432C177 432.66 177 433.32 177 434C177.949 434.309 178.898 434.619 179.875 434.938C183 436 183 436 185 437C185 437.66 185 438.32 185 439C185.804 439.268 186.609 439.536 187.438 439.812C188.283 440.204 189.129 440.596 190 441C191.16 444.48 191.14 447.591 191.129 451.209C191.132 452.305 191.132 452.305 191.135 453.423C191.139 455.836 191.136 458.25 191.133 460.664C191.134 462.339 191.134 464.014 191.136 465.689C191.137 469.197 191.135 472.706 191.13 476.215C191.125 480.722 191.128 485.23 191.134 489.737C191.138 493.194 191.136 496.651 191.134 500.108C191.133 501.771 191.134 503.434 191.136 505.096C191.139 507.414 191.135 509.732 191.129 512.049C191.131 512.742 191.133 513.435 191.136 514.149C191.114 518.886 191.114 518.886 190 520C185.744 520.471 183.836 519.542 180.504 516.957C174.609 512.619 168.362 509.176 161.938 505.688C159.546 504.377 157.158 503.062 154.77 501.746C153.615 501.11 152.461 500.475 151.272 499.82C143.492 495.492 135.855 490.92 128.227 486.332C126.58 485.347 124.919 484.386 123.25 483.438C121 482 121 482 120 480C119.907 477.376 119.874 474.778 119.887 472.154C119.886 471.344 119.886 470.534 119.886 469.7C119.887 467.016 119.895 464.332 119.902 461.648C119.904 459.79 119.906 457.932 119.907 456.074C119.91 451.179 119.92 446.283 119.931 441.387C119.942 436.393 119.946 431.4 119.951 426.406C119.962 416.604 119.979 406.802 120 397Z" fill="#96F93A"/>
<path d="M403 79C404.935 79.9546 406.833 80.9871 408.699 82.0703C409.814 82.7124 410.928 83.3544 412.076 84.0159C413.28 84.7188 414.484 85.4218 415.688 86.125C416.933 86.8463 418.179 87.5669 419.426 88.2869C422.002 89.7765 424.577 91.27 427.149 92.7661C430.839 94.9095 434.539 97.0333 438.242 99.1524C439.402 99.8168 440.561 100.481 441.72 101.146C443.882 102.386 446.045 103.624 448.208 104.862C451.15 106.556 454.079 108.27 457 110C458.052 110.621 459.103 111.242 460.187 111.882C461.197 112.497 462.206 113.112 463.246 113.746C464.159 114.298 465.073 114.851 466.013 115.42C466.669 115.941 467.325 116.463 468 117C468 117.99 468 118.98 468 120C467.319 120.317 466.639 120.634 465.938 120.961C459.681 123.973 453.794 127.278 447.938 131C442.795 134.268 437.64 137.371 432.258 140.234C427.529 142.797 422.86 145.461 418.188 148.125C417.279 148.64 416.371 149.156 415.435 149.687C409.951 152.818 409.951 152.818 404.738 156.367C401.406 158.354 399.821 158.632 396 158C393.587 156.737 391.483 155.465 389.25 153.938C382.099 149.26 374.792 144.928 367.375 140.688C355.522 133.893 343.743 126.981 332 120C332.176 118.208 332.176 118.208 333 116C335.23 114.328 335.23 114.328 338.188 112.68C339.27 112.067 340.352 111.455 341.468 110.824C342.645 110.174 343.823 109.524 345 108.875C346.202 108.2 347.402 107.523 348.603 106.844C350.984 105.499 353.369 104.16 355.756 102.824C359.785 100.559 363.773 98.2308 367.75 95.875C368.715 95.3096 368.715 95.3096 369.7 94.7327C373.747 92.3577 377.755 89.9254 381.75 87.4649C382.744 86.8598 383.738 86.2548 384.763 85.6314C386.717 84.4413 388.665 83.2395 390.604 82.0249C391.493 81.4869 392.381 80.9489 393.297 80.3945C394.084 79.9083 394.871 79.4221 395.683 78.9212C398.653 77.7405 399.979 78.0078 403 79Z" fill="#FAFCFD"/>
<path d="M330 603C333.997 604.295 337.549 605.7 341.211 607.766C342.197 608.319 343.183 608.873 344.198 609.443C345.247 610.039 346.295 610.636 347.375 611.25C348.469 611.868 349.563 612.485 350.69 613.121C360.328 618.579 369.904 624.141 379.457 629.746C380.802 630.535 380.802 630.535 382.174 631.339C384.205 632.533 386.233 633.73 388.259 634.93C389.333 635.563 390.406 636.196 391.512 636.848C392.49 637.427 393.468 638.005 394.475 638.602C397.005 640.103 397.005 640.103 400 641C400.33 668.06 400.66 695.12 401 723C396.158 721.386 393.086 720.003 388.875 717.375C381.464 712.823 373.932 708.492 366.375 704.188C365.161 703.495 363.947 702.803 362.733 702.111C358.055 699.444 353.375 696.782 348.695 694.12C346.664 692.965 344.633 691.808 342.602 690.652C340.78 689.613 338.956 688.577 337.132 687.542C336.332 687.086 335.532 686.63 334.707 686.16C333.663 685.567 333.663 685.567 332.597 684.961C331 684 331 684 330 683C329.905 680.505 329.874 678.038 329.886 675.543C329.886 674.762 329.886 673.982 329.886 673.178C329.887 670.586 329.895 667.994 329.902 665.402C329.904 663.61 329.906 661.818 329.907 660.026C329.91 655.299 329.92 650.573 329.931 645.846C329.942 641.027 329.946 636.208 329.951 631.389C329.962 621.926 329.979 612.463 330 603Z" fill="#FCFDFE"/>
<path d="M256 322C256.99 322 257.98 322 259 322C259 347.08 259 372.16 259 398C258.34 398 257.68 398 257 398C255.507 395.014 255.881 392.31 255.887 388.98C255.886 388.258 255.886 387.536 255.886 386.792C255.887 384.4 255.895 382.009 255.902 379.617C255.904 377.961 255.906 376.305 255.907 374.648C255.91 370.285 255.92 365.922 255.931 361.559C255.942 357.108 255.946 352.658 255.951 348.207C255.962 339.471 255.979 330.736 256 322Z" fill="#AAF936"/>
<path d="M120 482C124.773 482.742 124.773 482.742 126.812 485.062C127.204 485.702 127.596 486.341 128 487C126.68 487 125.36 487 124 487C122.972 495.16 122.824 503.252 122.797 511.469C122.793 512.477 122.793 512.477 122.788 513.506C122.773 517.049 122.764 520.591 122.76 524.134C122.754 527.79 122.73 531.446 122.702 535.102C122.683 537.923 122.678 540.744 122.676 543.564C122.672 545.569 122.653 547.573 122.634 549.577C122.637 550.786 122.64 551.995 122.644 553.24C122.638 554.84 122.638 554.84 122.633 556.473C122.754 557.307 122.875 558.141 123 559C123.99 559.66 124.98 560.32 126 561C126 561.66 126 562.32 126 563C126.99 563.33 127.98 563.66 129 564C122.25 563.25 122.25 563.25 120 561C119.812 558.47 119.748 556.051 119.773 553.521C119.773 552.75 119.772 551.979 119.772 551.185C119.773 548.631 119.789 546.077 119.805 543.523C119.808 541.755 119.811 539.987 119.813 538.218C119.821 533.559 119.841 528.9 119.863 524.241C119.883 519.489 119.892 514.737 119.902 509.984C119.924 500.656 119.958 491.328 120 482Z" fill="#2770BF"/>
<path d="M402 507C402.33 507 402.66 507 403 507C403.896 543.382 404.012 579.618 403 616C402.34 616 401.68 616 401 616C400.977 601.936 400.959 587.872 400.948 573.807C400.943 567.278 400.936 560.748 400.925 554.218C400.914 547.922 400.908 541.626 400.905 535.331C400.903 532.923 400.9 530.515 400.894 528.107C400.887 524.747 400.886 521.387 400.887 518.028C400.883 517.021 400.879 516.015 400.876 514.978C400.877 514.068 400.878 513.158 400.88 512.22C400.878 511.027 400.878 511.027 400.877 509.81C401 508 401 508 402 507Z" fill="#0E2D8B"/>
<path d="M260 321C261.65 321.33 263.3 321.66 265 322C264.01 322.33 263.02 322.66 262 323C262.156 323.71 262.312 324.421 262.473 325.152C262.765 326.531 262.765 326.531 263.062 327.938C263.26 328.854 263.457 329.771 263.66 330.715C263.772 331.469 263.884 332.223 264 333C263.67 333.33 263.34 333.66 263 334C262.917 335.871 262.904 337.745 262.918 339.618C262.925 340.82 262.931 342.022 262.938 343.26C262.949 344.57 262.961 345.88 262.973 347.23C262.98 348.582 262.986 349.934 262.991 351.286C263.016 357.037 263.051 362.789 263.096 368.54C263.123 372.056 263.14 375.571 263.151 379.087C263.16 381.073 263.18 383.059 263.201 385.045C263.204 386.263 263.208 387.481 263.211 388.735C263.222 390.336 263.222 390.336 263.234 391.969C262.981 395.25 262.161 397.932 261 401C255.977 401.295 253.105 400.985 249 398C249.33 397.01 249.66 396.02 250 395C251.361 395.959 251.361 395.959 252.75 396.938C255.958 399.213 255.958 399.213 260 400C260 373.93 260 347.86 260 321Z" fill="#3FB3E0"/>
<path d="M180 205C180.66 205.66 181.32 206.32 182 207C181.34 207.99 180.68 208.98 180 210C179.34 210 178.68 210 178 210C178 210.66 178 211.32 178 212C177.374 212.193 176.747 212.387 176.102 212.586C175.284 212.846 174.467 213.107 173.625 213.375C172.813 213.63 172.001 213.885 171.164 214.148C168.835 214.899 168.835 214.899 167 217C166.216 217.309 165.433 217.619 164.625 217.938C162.025 218.857 162.025 218.857 160.188 220.375C158.158 221.883 156.267 222.902 154 224C151.061 225.429 148.567 226.964 146 229C145.134 229.495 144.267 229.99 143.375 230.5C140.752 231.931 140.752 231.931 139 235C138.01 234.67 137.02 234.34 136 234C135.216 234.474 134.433 234.949 133.625 235.438C130.753 237.147 129.272 237.28 126 237C129.46 234.107 132.952 231.75 136.875 229.531C138.016 228.883 139.157 228.234 140.333 227.566C141.555 226.878 142.778 226.189 144 225.5C145.251 224.791 146.502 224.081 147.753 223.371C150.28 221.937 152.809 220.505 155.338 219.074C160.652 216.067 165.951 213.033 171.25 210C172.963 209.021 174.677 208.042 176.391 207.062C177.092 206.662 177.794 206.261 178.517 205.848C179.006 205.568 179.496 205.288 180 205Z" fill="#85D324"/>
<path d="M189 441C191.382 444.572 191.277 447.089 191.243 451.209C191.245 451.94 191.247 452.67 191.249 453.423C191.252 455.837 191.242 458.25 191.23 460.664C191.229 462.339 191.229 464.014 191.229 465.689C191.228 469.197 191.219 472.706 191.206 476.215C191.189 480.722 191.185 485.23 191.186 489.737C191.185 493.194 191.18 496.651 191.173 500.108C191.17 501.771 191.168 503.434 191.167 505.096C191.165 507.414 191.156 509.732 191.145 512.049C191.146 512.742 191.146 513.435 191.147 514.149C191.114 518.886 191.114 518.886 190 520C187.75 520.375 187.75 520.375 185 520C182.188 517.5 182.188 517.5 180 515C182.64 515.33 185.28 515.66 188 516C188.33 491.25 188.66 466.5 189 441Z" fill="#88E281"/>
<path d="M191 445C191.33 445 191.66 445 192 445C192.755 449.102 193.172 453.067 193.316 457.234C193.379 459.036 193.379 459.036 193.444 460.875C193.483 462.154 193.522 463.433 193.562 464.75C193.583 465.408 193.604 466.066 193.626 466.744C194.778 503.54 194.778 503.54 193 521C190.625 521.625 190.625 521.625 188 522C187.34 521.34 186.68 520.68 186 520C187.98 519.505 187.98 519.505 190 519C190.33 494.58 190.66 470.16 191 445Z" fill="#3FA3EE"/>
<path d="M536 319C537.485 319.99 537.485 319.99 539 321C539.303 323.527 539.41 325.81 539.388 328.34C539.396 329.474 539.396 329.474 539.404 330.631C539.417 333.139 539.409 335.645 539.398 338.152C539.4 339.891 539.403 341.63 539.407 343.369C539.412 347.016 539.405 350.664 539.391 354.311C539.374 358.99 539.384 363.669 539.402 368.347C539.413 371.939 539.409 375.531 539.401 379.123C539.399 380.848 539.402 382.573 539.409 384.299C539.416 386.71 539.405 389.12 539.388 391.531C539.394 392.246 539.4 392.962 539.407 393.699C539.351 398.02 539.224 398.776 536 402C536 374.61 536 347.22 536 319Z" fill="#274A83"/>
<path d="M259 320C260.98 320 262.96 320 265 320C266.875 322 266.875 322 268 324C267.423 323.691 266.845 323.381 266.25 323.062C263.781 321.807 263.781 321.807 260 321C260 347.07 260 373.14 260 400C255.468 399.094 253.782 398.459 250.188 395.938C249.397 395.39 248.607 394.842 247.793 394.277C247.201 393.856 246.61 393.434 246 393C247.98 392.505 247.98 392.505 250 392C250.33 392.66 250.66 393.32 251 394C252.979 394.727 254.98 395.398 257 396C257 396.66 257 397.32 257 398C257.66 398 258.32 398 259 398C259 372.26 259 346.52 259 320Z" fill="#81D68F"/>
<path d="M330 522C331.484 523.123 331.484 523.123 333 525C333.323 527.715 333.323 527.715 333.249 531.032C333.229 532.273 333.208 533.514 333.187 534.793C333.15 536.147 333.112 537.501 333.074 538.855C333.046 540.241 333.019 541.627 332.994 543.013C332.924 546.658 332.835 550.302 332.742 553.947C332.651 557.667 332.577 561.387 332.502 565.107C332.352 572.405 332.182 579.703 332 587C331.67 587 331.34 587 331 587C330.043 579.312 329.868 571.734 329.902 563.992C329.904 562.786 329.905 561.579 329.907 560.336C329.912 556.515 329.925 552.695 329.937 548.875C329.943 546.271 329.947 543.667 329.951 541.062C329.962 534.708 329.979 528.354 330 522Z" fill="#639CF5"/>
<path d="M281 252C286.94 254.475 286.94 254.475 293 257C293 257.66 293 258.32 293 259C293.71 259.268 294.421 259.536 295.152 259.812C298.083 261.035 300.788 262.457 303.562 264C306.681 265.73 309.796 267.432 313 269C313 269.66 313 270.32 313 271C314.98 271.66 316.96 272.32 319 273C316.212 274.033 315.132 274.045 312.25 273.062C311.136 272.537 311.136 272.537 310 272C310 271.34 310 270.68 310 270C309.01 270.33 308.02 270.66 307 271C304.717 269.809 302.644 268.592 300.5 267.188C299.628 266.634 299.628 266.634 298.738 266.068C296.137 264.411 293.566 262.711 291 261C291 260.34 291 259.68 291 259C288.69 258.34 286.38 257.68 284 257C284 256.34 284 255.68 284 255C283.01 254.67 282.02 254.34 281 254C281 253.34 281 252.68 281 252Z" fill="#7ECD3D"/>
<path d="M282 172C287.3 174.552 292.32 177.359 297.344 180.414C305.312 185.216 305.312 185.216 313.762 189.047C316 190 316 190 317 192C311.312 192.403 308.22 191.45 303.375 188.5C302.782 188.142 302.189 187.784 301.577 187.415C300.339 186.665 299.104 185.909 297.873 185.146C296.012 184.007 294.131 182.913 292.238 181.828C291.054 181.136 289.871 180.444 288.688 179.75C287.619 179.126 286.55 178.502 285.449 177.859C283 176 283 176 282.145 173.766C282.097 173.183 282.049 172.6 282 172Z" fill="#7FCF38"/>
<path d="M379 311C385.815 311.296 390.384 314.305 396 318C395.649 320.687 395.325 321.74 393.174 323.464C392.396 323.904 391.618 324.344 390.816 324.797C389.971 325.28 389.126 325.764 388.256 326.262C387.367 326.753 386.478 327.244 385.562 327.75C384.678 328.257 383.793 328.763 382.881 329.285C376.307 333 376.307 333 374 333C374 332.01 374 331.02 374 330C375.875 328.938 375.875 328.938 378 328C378.66 328.33 379.32 328.66 380 329C380.33 327.68 380.66 326.36 381 325C382.98 325 384.96 325 387 325C387 324.34 387 323.68 387 323C387.99 323 388.98 323 390 323C390.33 321.68 390.66 320.36 391 319C390.01 318.67 389.02 318.34 388 318C388 317.34 388 316.68 388 316C387.257 315.917 386.515 315.835 385.75 315.75C382.488 314.86 381.19 313.515 379 311Z" fill="#8ACE17"/>
<path d="M497 264C497 264.66 497 265.32 497 266C496.34 266 495.68 266 495 266C494.67 266.99 494.34 267.98 494 269C493.34 268.67 492.68 268.34 492 268C491.67 268.99 491.34 269.98 491 271C490.01 271.33 489.02 271.66 488 272C486.5 273.333 486.5 273.333 485 275C483.667 276.333 482.333 277.667 481 279C481.66 279.66 482.32 280.32 483 281C480 282 480 282 477 281C477 281.66 477 282.32 477 283C475.68 282.67 474.36 282.34 473 282C472.75 279.688 472.75 279.688 473 277C475.558 274.339 478.686 273.262 482.062 271.887C486.576 269.821 492.171 264 497 264Z" fill="#82C72A"/>
<path d="M331 588C331.33 588 331.66 588 332 588C332.168 590.104 332.334 592.208 332.5 594.312C332.593 595.484 332.686 596.656 332.781 597.863C332.924 599.905 333 601.953 333 604C332.01 603.67 331.02 603.34 330 603C330 629.07 330 655.14 330 682C329.67 682 329.34 682 329 682C329 655.27 329 628.54 329 601C329.66 601 330.32 601 331 601C331 596.71 331 592.42 331 588Z" fill="#76A9F7"/>
<path d="M121 329C121.33 329 121.66 329 122 329C122.982 342.931 123.093 356.789 123 370.75C122.973 374.828 122.953 378.906 122.938 382.984C122.929 383.903 122.921 384.822 122.912 385.768C122.895 390.324 123.219 394.5 124 399C123.505 399.99 123.505 399.99 123 401C123.99 401.33 124.98 401.66 126 402C126 402.66 126 403.32 126 404C122.125 402.125 122.125 402.125 121 401C120.906 398.761 120.883 396.518 120.886 394.277C120.886 393.575 120.886 392.872 120.886 392.149C120.887 389.816 120.895 387.484 120.902 385.152C120.904 383.54 120.906 381.927 120.907 380.314C120.91 376.061 120.92 371.808 120.931 367.555C120.942 363.218 120.946 358.882 120.951 354.545C120.962 346.03 120.979 337.515 121 329Z" fill="#3AA3FE"/>
<path d="M608 442C608.977 444.932 609.152 446.921 609.205 449.98C609.225 450.997 609.245 452.013 609.266 453.06C609.282 454.163 609.299 455.266 609.316 456.402C609.337 457.549 609.358 458.696 609.379 459.878C609.423 462.318 609.464 464.759 609.503 467.199C609.561 470.864 609.627 474.529 609.693 478.193C609.932 491.797 610.062 505.395 610 519C611.32 519.33 612.64 519.66 614 520C612.35 520 610.7 520 609 520C607.928 504.303 607.682 488.604 607.438 472.875C607.394 470.259 607.351 467.643 607.307 465.027C607.201 458.685 607.099 452.343 607 446C605.35 445.67 603.7 445.34 602 445C604.625 442 604.625 442 608 442Z" fill="#2F5F5C"/>
<path d="M327 600C327.66 600.33 328.32 600.66 329 601C329 627.73 329 654.46 329 682C327.68 681.34 326.36 680.68 325 680C325 679.34 325 678.68 325 678C325.99 677.505 325.99 677.505 327 677C327 651.59 327 626.18 327 600Z" fill="#4D99F8"/>
<path d="M517 309C521.491 309.573 524.893 311.412 528.688 313.75C529.268 314.085 529.849 314.42 530.447 314.766C534.144 317.022 535.862 318.799 537 323C536.336 323.326 535.672 323.652 534.988 323.988C529.411 326.747 529.411 326.747 524 329.812C522 331 522 331 520 331C521 328 521 328 522.707 327.008C523.402 326.716 524.097 326.425 524.812 326.125C528.576 324.382 530.664 322.504 533 319C532.402 318.856 531.804 318.711 531.188 318.562C526.289 317.303 526.289 317.303 524.688 315.625C522.413 313.435 519.844 312.327 517 311C517 310.34 517 309.68 517 309Z" fill="#3877F6"/>
<path d="M264 159C264 159.66 264 160.32 264 161C263.01 161 262.02 161 261 161C261 161.66 261 162.32 261 163C259.907 163.433 258.814 163.866 257.688 164.312C255.538 165.226 254.161 165.839 252.5 167.5C250.122 169.878 247.079 170.726 244 172C241.267 173.518 239.209 174.791 237 177C237 176.01 237 175.02 237 174C236.34 173.67 235.68 173.34 235 173C238.64 170.832 242.288 168.678 245.944 166.536C247.186 165.806 248.427 165.071 249.665 164.333C251.445 163.274 253.231 162.227 255.02 161.184C256.093 160.55 257.167 159.916 258.273 159.263C261 158 261 158 264 159Z" fill="#84D022"/>
<path d="M216 184C216.33 184.99 216.66 185.98 217 187C212.571 190.031 208.021 192.801 203.406 195.539C201.39 196.763 199.44 198.034 197.5 199.375C195 201 195 201 193 201C193 200.34 193 199.68 193 199C192.34 198.67 191.68 198.34 191 198C199.25 193.38 207.5 188.76 216 184Z" fill="#83CE21"/>
<path d="M122 262C123.485 262.99 123.485 262.99 125 264C124.67 264.33 124.34 264.66 124 265C123.911 268.03 123.885 271.037 123.902 274.066C123.904 274.975 123.905 275.884 123.907 276.82C123.912 279.734 123.925 282.648 123.938 285.562C123.943 287.533 123.947 289.504 123.951 291.475C123.962 296.316 123.98 301.158 124 306C124.33 306 124.66 306 125 306C125 309.63 125 313.26 125 317C124.01 316.34 123.02 315.68 122 315C121.639 312.747 121.639 312.747 121.659 309.908C121.66 308.847 121.66 307.786 121.66 306.693C121.676 305.544 121.691 304.395 121.707 303.211C121.713 301.451 121.713 301.451 121.72 299.655C121.737 295.895 121.774 292.135 121.813 288.375C121.828 285.831 121.841 283.286 121.854 280.742C121.887 274.495 121.937 268.247 122 262Z" fill="#8CFA34"/>
<path d="M324 196C324.99 196 325.98 196 327 196C327.375 198.25 327.375 198.25 327 201C323.916 203.621 321.084 204.97 317.273 206.324C312.876 207.94 309.073 210.192 305.125 212.688C298.252 217 298.252 217 296 217C296 216.34 296 215.68 296 215C297.609 213.746 297.609 213.746 299.75 212.438C300.446 212.003 301.142 211.569 301.859 211.121C303.92 210.042 305.729 209.455 308 209C308 208.34 308 207.68 308 207C310.906 205.743 312.796 205 316 205C316 204.34 316 203.68 316 203C318.64 202.34 321.28 201.68 324 201C324 199.35 324 197.7 324 196Z" fill="#83C626"/>
<path d="M500 182C500 182.99 500 183.98 500 185C497 187 497 187 494 187C494 187.66 494 188.32 494 189C489.612 192.4 485.232 194.196 480 196C480.211 194.188 480.211 194.188 481 192C483.039 190.438 483.039 190.438 485.625 189C486.525 188.492 487.425 187.984 488.352 187.461C489.226 186.979 490.1 186.497 491 186C492.334 185.209 493.667 184.418 495 183.625C498 182 498 182 500 182Z" fill="#79C039"/>
<path d="M363 299C364.32 299.33 365.64 299.66 367 300C367 300.66 367 301.32 367 302C367.681 302.268 368.361 302.536 369.062 302.812C372.397 304.161 375.697 305.575 379 307C379 307.66 379 308.32 379 309C380.32 309.66 381.64 310.32 383 311C380.312 311.75 380.312 311.75 377 312C374.438 310.188 374.438 310.188 372 308C369.321 306.76 369.321 306.76 367 306C367 305.34 367 304.68 367 304C365.68 303.67 364.36 303.34 363 303C363 301.68 363 300.36 363 299Z" fill="#7ACD43"/>
<path d="M191 465C191.33 465 191.66 465 192 465C192 483.81 192 502.62 192 522C190.02 521.67 188.04 521.34 186 521C187.32 520.34 188.64 519.68 190 519C190.33 501.18 190.66 483.36 191 465Z" fill="#4DB1D2"/>
<path d="M341 287C345.972 288.492 350.418 290.605 355 293C355 293.66 355 294.32 355 295C356.423 295.433 356.423 295.433 357.875 295.875C361 297 361 297 363 299C361.35 299.33 359.7 299.66 358 300C358 299.34 358 298.68 358 298C356.35 297.67 354.7 297.34 353 297C352.67 296.01 352.34 295.02 352 294C350.917 294.124 350.917 294.124 349.812 294.25C346.106 293.921 344.632 292.559 342 290C341.67 289.01 341.34 288.02 341 287Z" fill="#78C750"/>
<path d="M295 219C295 219.66 295 220.32 295 221C293.021 222.364 291.018 223.694 289 225C288.532 225.507 288.064 226.013 287.582 226.535C285.136 228.8 282.311 229.273 279.156 230.156C276.789 231.082 275.753 232.209 274 234C270.812 234.688 270.812 234.688 268 235C270.805 231.961 273.457 230.018 277.125 228.125C281.874 225.626 286.452 222.942 291.004 220.102C293 219 293 219 295 219Z" fill="#489BC8"/>
<path d="M677 480C677.33 480 677.66 480 678 480C678.33 482.64 678.66 485.28 679 488C678.01 488.495 678.01 488.495 677 489C676.34 488.01 675.68 487.02 675 486C674.526 486.639 674.051 487.279 673.562 487.938C669.946 490.849 666.528 490.806 662 491C664.535 488.189 667.419 486.363 670.625 484.375C673.991 482.422 673.991 482.422 677 480Z" fill="#245177"/>
<path d="M121 519C121.33 519 121.66 519 122 519C122.015 520.201 122.029 521.402 122.044 522.64C122.102 527.087 122.179 531.533 122.262 535.98C122.296 537.906 122.324 539.833 122.346 541.759C122.38 544.525 122.432 547.289 122.488 550.055C122.495 550.919 122.501 551.784 122.508 552.675C122.539 555.353 122.539 555.353 123 559C123.99 559.66 124.98 560.32 126 561C126 561.66 126 562.32 126 563C126.99 563.33 127.98 563.66 129 564C122.125 563.125 122.125 563.125 121 562C120.907 560.649 120.883 559.293 120.887 557.939C120.887 557.078 120.887 556.218 120.887 555.331C120.892 554.395 120.897 553.46 120.902 552.496C120.904 551.543 120.905 550.59 120.907 549.608C120.912 546.551 120.925 543.494 120.938 540.438C120.943 538.37 120.947 536.303 120.951 534.236C120.962 529.158 120.98 524.079 121 519Z" fill="#41A8FD"/>
<path d="M604 444C605.98 444.99 605.98 444.99 608 446C608 459.2 608 472.4 608 486C607.01 486.495 607.01 486.495 606 487C605.794 463.418 605.794 463.418 607 452C606.34 451.67 605.68 451.34 605 451C604.593 448.678 604.256 446.343 604 444Z" fill="#25488B"/>
<path d="M276 229C274.677 231.646 273.253 232.007 270.625 233.313C266.839 235.335 264.742 236.935 263 241C264.32 241.66 265.64 242.32 267 243C266.01 243.66 265.02 244.32 264 245C263.34 244.67 262.68 244.34 262 244C260.903 240.71 261.2 239.287 262 236C262.66 236 263.32 236 264 236C264.268 235.031 264.536 234.061 264.813 233.063C265.204 232.052 265.596 231.041 266 230C269.473 228.842 272.361 228.931 276 229Z" fill="#7FCE43"/>
<path d="M373 334C373.99 334.33 374.98 334.66 376 335C375 338 375 338 373.109 339.098C372.331 339.416 371.552 339.734 370.75 340.062C369.935 340.4 369.121 340.738 368.281 341.086C367.528 341.388 366.776 341.689 366 342C365.092 342.392 364.185 342.784 363.25 343.188C360.852 344.053 358.51 344.57 356 345C358.924 341.806 361.798 339.819 365.625 337.812C366.587 337.303 367.548 336.794 368.539 336.27C370.022 335.505 371.508 334.746 373 334Z" fill="#4896D9"/>
<path d="M393 323C392.673 326.048 391.995 327.005 389.75 329.188C386.98 331.013 385.218 331.492 382 332C381.01 332.66 380.02 333.32 379 334C376.812 333.625 376.812 333.625 375 333C375.904 332.446 376.807 331.891 377.738 331.32C378.93 330.589 380.121 329.857 381.312 329.125C381.907 328.76 382.502 328.395 383.115 328.02C391.283 323 391.283 323 393 323Z" fill="#4F96CA"/>
<path d="M319 274C323.735 275.7 327.962 278.137 332.312 280.625C333.053 281.045 333.794 281.465 334.557 281.898C336.373 282.929 338.187 283.964 340 285C336.71 286.097 335.287 285.8 332 285C331.67 284.01 331.34 283.02 331 282C330.072 281.876 329.144 281.752 328.188 281.625C325 281 325 281 322 279C322 278.01 322 277.02 322 276C321.01 276 320.02 276 319 276C319 275.34 319 274.68 319 274Z" fill="#7CCB47"/>
<path d="M236 175C236 175.66 236 176.32 236 177C234.989 177.392 233.979 177.784 232.938 178.188C229.424 179.667 226.63 181.621 223.676 184.012C222 185 222 185 218 185C219.386 180.841 222.24 179.782 225.875 177.75C226.513 177.374 227.151 176.997 227.809 176.609C232.624 173.875 232.624 173.875 236 175Z" fill="#82CD21"/>
<path d="M263 163C270.43 163.169 275.849 167.132 282 171C277.919 172.192 275.968 171.722 272 170C268.903 168.135 265.877 166.193 263 164C263 163.67 263 163.34 263 163Z" fill="#7FCC35"/>
<path d="M541.125 159.75C542.766 160.464 544.399 161.2 546 162C545.67 163.32 545.34 164.64 545 166C543.917 165.752 543.917 165.752 542.812 165.5C540.136 165.024 537.711 164.923 535 165C535 165.66 535 166.32 535 167C534.34 166.67 533.68 166.34 533 166C533.364 163.358 533.883 162.13 535.688 160.125C538 159 538 159 541.125 159.75Z" fill="#8DD833"/>
<path d="M493 214C497.576 214.56 500.981 216.524 504.812 218.938C505.41 219.298 506.007 219.658 506.623 220.029C508.121 220.959 509.566 221.974 511 223C511 223.66 511 224.32 511 225C506.872 224.393 503.668 222.962 500 221C500 220.34 500 219.68 500 219C499.031 218.732 498.061 218.464 497.062 218.188C495.547 217.6 495.547 217.6 494 217C493.67 216.01 493.34 215.02 493 214Z" fill="#3E79F4"/>
<path d="M121 401C122.654 401.732 124.298 402.487 125.938 403.25C126.854 403.668 127.771 404.085 128.715 404.516C131 406 131 406 131.816 408.172C131.877 408.775 131.938 409.378 132 410C130.35 410 128.7 410 127 410C127 409.34 127 408.68 127 408C126.01 407.67 125.02 407.34 124 407C123.34 407.66 122.68 408.32 122 409C121 408 121 408 120.938 404.438C120.958 403.303 120.979 402.169 121 401Z" fill="#99ED2C"/>
<path d="M356 345C354.848 347.468 353.952 349.048 352 351C350.667 351.333 349.333 351.667 348 352C345.947 353.842 345.947 353.842 345 356C342.03 355.505 342.03 355.505 339 355C341.612 352.042 344.666 350.281 348.062 348.312C349.126 347.69 350.189 347.067 351.285 346.426C354 345 354 345 356 345Z" fill="#4EA0C7"/>
<path d="M479 195C480.125 197.312 480.125 197.312 481 200C480.01 201.485 480.01 201.485 479 203C474.25 202.25 474.25 202.25 472 200C472.25 197.938 472.25 197.938 473 196C475 195 475 195 479 195Z" fill="#81C629"/>
<path d="M170 510C175.89 512.728 181.21 515.634 186.309 519.668C187.815 520.855 189.404 521.936 191 523C185.88 522.204 182.675 521.675 179 518C177.465 517.059 175.9 516.164 174.312 515.312C173.504 514.876 172.696 514.439 171.863 513.988C171.248 513.662 170.634 513.336 170 513C170 512.01 170 511.02 170 510Z" fill="#4E98F6"/>
<path d="M261 388C261.66 388 262.32 388 263 388C263.193 392.824 262.757 396.496 261 401C255.977 401.295 253.105 400.985 249 398C249.33 397.01 249.66 396.02 250 395C250.908 395.639 251.815 396.279 252.75 396.938C255.958 399.213 255.958 399.213 260 400C260.33 396.04 260.66 392.08 261 388Z" fill="#4899F0"/>
<path d="M533 319C533.99 319 534.98 319 536 319C536.33 320.32 536.66 321.64 537 323C536.336 323.326 535.672 323.652 534.988 323.988C529.411 326.747 529.411 326.747 524 329.812C522 331 522 331 520 331C521 328 521 328 522.707 327.008C523.749 326.571 523.749 326.571 524.812 326.125C528.623 324.37 530.47 322.373 533 319Z" fill="#266FE6"/>
<path d="M318 194C320.375 194.312 320.375 194.312 323 195C325 198 325 198 324.625 200.188C324.419 200.786 324.213 201.384 324 202C322.35 202.33 320.7 202.66 319 203C318.456 199.942 318 197.112 318 194Z" fill="#83CF1A"/>
<path d="M270 326C275.923 328.404 280.921 331.109 286 335C284.02 335.99 284.02 335.99 282 337C281.67 336.01 281.34 335.02 281 334C278.657 332.879 278.657 332.879 276 332C274.659 331.348 273.323 330.686 272 330C272 329.34 272 328.68 272 328C271.34 328 270.68 328 270 328C270 327.34 270 326.68 270 326Z" fill="#4E9CE8"/>
<path d="M321 355C323.31 355 325.62 355 328 355C327.67 356.32 327.34 357.64 327 359C328.299 358.567 328.299 358.567 329.625 358.125C332.75 357.083 335.875 356.042 339 355C339 355.66 339 356.32 339 357C336.034 359.401 333.773 360.855 330 361.562C325.791 360.773 324.048 358.975 321 356C321 355.67 321 355.34 321 355Z" fill="#4CA2BD"/>
<path d="M379 311C385.165 311.385 388.986 313.471 394 317C393.01 318.485 393.01 318.485 392 320C390.68 319.34 389.36 318.68 388 318C388 317.34 388 316.68 388 316C387.257 315.917 386.515 315.835 385.75 315.75C382.488 314.86 381.19 313.515 379 311Z" fill="#82D717"/>
<path d="M530 234C531.98 234.66 533.96 235.32 536 236C536.33 237.65 536.66 239.3 537 241C533.433 243.489 530.11 245.55 526 247C526 246.01 526 245.02 526 244C526.949 243.588 527.897 243.175 528.875 242.75C532.007 240.996 532.865 240.291 534 237C532.68 236.34 531.36 235.68 530 235C530 234.67 530 234.34 530 234Z" fill="#4284F0"/>
<path d="M302 184C305.277 185.269 308.519 186.619 311.75 188C312.529 188.33 313.307 188.66 314.109 189C316 190 316 190 317 192C311.323 192.591 308.302 191.418 303.504 188.387C303.008 187.929 302.511 187.471 302 187C302 186.01 302 185.02 302 184Z" fill="#7ACB44"/>
<path d="M539 563C539 568.94 539 574.88 539 581C538.34 580.67 537.68 580.34 537 580C537.052 578.844 537.052 578.844 537.105 577.664C537.146 576.16 537.146 576.16 537.188 574.625C537.24 573.128 537.24 573.128 537.293 571.602C537.196 570.743 537.1 569.885 537 569C536.01 568.34 535.02 567.68 534 567C533.67 566.34 533.34 565.68 533 565C536.75 563 536.75 563 539 563Z" fill="#B9AAA7"/>
<path d="M264 159C264 159.66 264 160.32 264 161C263.01 161 262.02 161 261 161C261 161.66 261 162.32 261 163C254.375 165.875 254.375 165.875 251 167C250.34 166.34 249.68 165.68 249 165C250.93 163.8 252.869 162.615 254.812 161.438C256.431 160.446 256.431 160.446 258.082 159.434C261 158 261 158 264 159Z" fill="#7DC23A"/>
<path d="M515 495C515 495.66 515 496.32 515 497C513.172 498.438 513.172 498.438 510.75 500C509.567 500.773 509.567 500.773 508.359 501.562C507.581 502.037 506.802 502.511 506 503C504.987 503.619 504.987 503.619 503.953 504.25C501.544 505.175 500.424 504.706 498 504C500.455 502.495 502.914 500.996 505.375 499.5C506.074 499.071 506.772 498.641 507.492 498.199C512.773 495 512.773 495 515 495Z" fill="#24556B"/>
<path d="M218 615C218.99 615.33 219.98 615.66 221 616C221 616.66 221 617.32 221 618C221.949 618.309 222.897 618.619 223.875 618.938C227 620 227 620 229 621C229 621.66 229 622.32 229 623C230.32 623 231.64 623 233 623C232.67 623.99 232.34 624.98 232 626C230.228 625.043 228.458 624.085 226.688 623.125C225.701 622.591 224.715 622.058 223.699 621.508C221 620 221 620 218 618C218 617.01 218 616.02 218 615Z" fill="#4295E5"/>
<path d="M474 203C480.529 203.616 480.529 203.616 482.688 205.375C483.121 205.911 483.554 206.447 484 207C485.32 208.018 486.65 209.022 488 210C487.67 210.66 487.34 211.32 487 212C485.373 211.213 483.748 210.42 482.125 209.625C481.22 209.184 480.315 208.743 479.383 208.289C476.728 206.853 475.354 205.708 474 203Z" fill="#4585E6"/>
<path d="M468 117C469.98 117.99 471.96 118.98 474 120C474 120.66 474 121.32 474 122C470.688 123.125 470.688 123.125 467 124C466.01 123.34 465.02 122.68 464 122C464 122.66 464 123.32 464 124C462.68 123.67 461.36 123.34 460 123C465.75 120 465.75 120 468 120C468 119.01 468 118.02 468 117Z" fill="#5C9FF4"/>
<path d="M122 315C123.485 315.99 123.485 315.99 125 317C125.083 317.639 125.165 318.279 125.25 318.938C125.898 321.46 125.898 321.46 129.562 322.75C130.697 323.162 131.831 323.575 133 324C133 324.99 133 325.98 133 327C128.385 325.681 124.901 323.786 121 321C121.33 319.02 121.66 317.04 122 315Z" fill="#82EB62"/>
<path d="M181 595C184.99 595.56 187.526 596.757 190.812 599.062C191.998 599.884 191.998 599.884 193.207 600.723C193.799 601.144 194.39 601.566 195 602C193.328 602.676 193.328 602.676 191 603C188.422 601.855 188.422 601.855 185.75 600.188C184.412 599.373 184.412 599.373 183.047 598.543C182.371 598.034 181.696 597.525 181 597C181 596.34 181 595.68 181 595Z" fill="#4399EC"/>
<path d="M225 380C229.019 381.378 231.768 383.265 235 386C236.329 387.006 237.661 388.008 239 389C237.68 389.33 236.36 389.66 235 390C235 389.34 235 388.68 235 388C234.092 387.794 233.185 387.588 232.25 387.375C228.243 385.68 227.105 383.725 225 380Z" fill="#559FE5"/>
<path d="M134 567C134.887 567.454 135.774 567.907 136.688 568.375C139.429 569.72 142.15 570.91 145 572C145 572.66 145 573.32 145 574C145.99 574.33 146.98 574.66 148 575C145 576 145 576 142.301 574.785C141.315 574.217 140.329 573.648 139.312 573.062C138.319 572.497 137.325 571.931 136.301 571.348C135.542 570.903 134.782 570.458 134 570C134 569.01 134 568.02 134 567Z" fill="#459CEC"/>
<path d="M636 217C641.707 217.466 645.159 218.938 650 222C649.67 222.99 649.34 223.98 649 225C647.02 224.01 645.04 223.02 643 222C643 221.34 643 220.68 643 220C641.824 219.814 641.824 219.814 640.625 219.625C638 219 638 219 636 217Z" fill="#93E330"/>
<path d="M500 182C500 182.99 500 183.98 500 185C497 187 497 187 494 187C493.67 187.66 493.34 188.32 493 189C491.02 189 489.04 189 487 189C495.75 182 495.75 182 500 182Z" fill="#70B960"/>
<path d="M121 482C124.653 483.25 125.781 483.671 128 487C126.68 487 125.36 487 124 487C123.67 488.32 123.34 489.64 123 491C120.71 487.565 120.822 486.015 121 482Z" fill="#49A0E4"/>
<path d="M304.328 134.82C304.88 135.21 305.432 135.599 306 136C304.753 136.651 303.502 137.296 302.25 137.938C301.554 138.297 300.858 138.657 300.141 139.027C298.072 139.967 296.24 140.628 294 141C293.34 140.67 292.68 140.34 292 140C293.57 138.939 295.157 137.902 296.75 136.875C297.632 136.295 298.513 135.715 299.422 135.117C302 134 302 134 304.328 134.82Z" fill="#3781E2"/>
<path d="M121 321C124.375 322.186 126.647 323.276 129 326C126.36 326.66 123.72 327.32 121 328C121 325.69 121 323.38 121 321Z" fill="#46A0E2"/>
<path d="M497 264C497 264.66 497 265.32 497 266C496.34 266 495.68 266 495 266C494.67 266.99 494.34 267.98 494 269C493.34 268.67 492.68 268.34 492 268C491.67 268.99 491.34 269.98 491 271C488.69 271.33 486.38 271.66 484 272C486.374 269.376 488.943 267.758 492 266C495 264 495 264 497 264Z" fill="#71BA55"/>
<path d="M291 180C294.855 179.641 296.578 179.725 299.875 181.875C300.576 182.576 301.277 183.277 302 184C302 184.66 302 185.32 302 186C297.806 185.329 294.597 183.144 291 181C291 180.67 291 180.34 291 180Z" fill="#7DD129"/>
<path d="M157 341C158.32 341.33 159.64 341.66 161 342C161 342.66 161 343.32 161 344C162.083 344.371 162.083 344.371 163.188 344.75C166.247 346.11 168.467 347.829 171 350C164.97 349.139 161.043 346.492 157 342C157 341.67 157 341.34 157 341Z" fill="#5A9EEA"/>
<path d="M501 217C503.64 217 506.28 217 509 217C509 217.99 509 218.98 509 220C509.99 220 510.98 220 512 220C512.33 220.99 512.66 221.98 513 223C508.245 222.424 505.03 220.449 501 218C501 217.67 501 217.34 501 217Z" fill="#6BC15F"/>
<path d="M179 354C180.983 354.951 182.961 355.911 184.938 356.875C186.04 357.409 187.142 357.942 188.277 358.492C191 360 191 360 192 362C187.221 361.421 183.979 359.601 180 357C179.67 356.01 179.34 355.02 179 354Z" fill="#5697F3"/>
<path d="M359 341C359 341.66 359 342.32 359 343C356.883 344.508 356.883 344.508 354.125 346.125C353.22 346.664 352.315 347.203 351.383 347.758C349 349 349 349 347 349C348.22 345.339 349.126 345.077 352.438 343.312C353.241 342.876 354.044 342.439 354.871 341.988C357 341 357 341 359 341Z" fill="#86CE36"/>
<path d="M352 294C356.128 294.607 359.332 296.038 363 298C360 300 360 300 358 300C358 299.34 358 298.68 358 298C356.35 297.67 354.7 297.34 353 297C352.67 296.01 352.34 295.02 352 294Z" fill="#7BCC41"/>
<path d="M267 244C271.035 245.59 275.018 247.282 279 249C279 249.66 279 250.32 279 251C279.66 251.33 280.32 251.66 281 252C280.01 252 279.02 252 278 252C278 251.34 278 250.68 278 250C276.02 250 274.04 250 272 250C272 249.34 272 248.68 272 248C271.361 247.897 270.721 247.794 270.062 247.688C269.382 247.461 268.701 247.234 268 247C267.67 246.01 267.34 245.02 267 244Z" fill="#85CA44"/>
<path d="M129 238C127.71 239.376 126.373 240.708 125 242C124.34 242 123.68 242 123 242C123.33 242.99 123.66 243.98 124 245C123.34 245.66 122.68 246.32 122 247C121.67 244.36 121.34 241.72 121 239C124.067 237.138 125.597 236.785 129 238Z" fill="#89E620"/>
<path d="M190 199C190.33 199.99 190.66 200.98 191 202C190.072 202.402 190.072 202.402 189.125 202.812C186.7 203.956 186.7 203.956 185 207C184.34 207 183.68 207 183 207C183 206.34 183 205.68 183 205C182.34 204.67 181.68 204.34 181 204C183.97 202.35 186.94 200.7 190 199Z" fill="#82CC21"/>
<path d="M480 194C476.535 195.485 476.535 195.485 473 197C473.33 198.65 473.66 200.3 474 202C473.01 202 472.02 202 471 202C471 201.34 471 200.68 471 200C470.34 200 469.68 200 469 200C469.254 198.113 469.254 198.113 470 196C471.777 194.918 471.777 194.918 473.938 194.187C474.648 193.934 475.358 193.68 476.09 193.418C478 193 478 193 480 194Z" fill="#4B8AE0"/>
<path d="M655 495C654.34 496.32 653.68 497.64 653 499C651.35 499 649.7 499 648 499C647.34 500.32 646.68 501.64 646 503C645.01 502.34 644.02 501.68 643 501C644.622 499.995 646.247 498.996 647.875 498C648.78 497.443 649.685 496.886 650.617 496.312C653 495 653 495 655 495Z" fill="#24546C"/>
<path d="M142 494C143.983 494.951 145.961 495.911 147.938 496.875C149.04 497.409 150.142 497.942 151.277 498.492C154 500 154 500 155 502C150.008 501.532 145.87 499.083 142 496C142 495.34 142 494.68 142 494Z" fill="#4F95F6"/>
<path d="M580 456C580.66 456.33 581.32 456.66 582 457C577.946 461.814 574.978 462.885 569 464C571.166 461.691 573.392 459.947 576.062 458.25C576.755 457.801 577.447 457.353 578.16 456.891C578.767 456.597 579.374 456.303 580 456Z" fill="#275864"/>
<path d="M528 166C527.812 167.875 527.812 167.875 527 170C523.622 171.877 520.824 172.218 517 172C524.2 166 524.2 166 528 166Z" fill="#78B85D"/>
<path d="M125 483C130.75 483.75 130.75 483.75 133 486C133.66 486.33 134.32 486.66 135 487C135.33 487.99 135.66 488.98 136 490C126.789 486.579 126.789 486.579 125 483Z" fill="#7DE668"/>
<path d="M600 445C600.66 445.33 601.32 445.66 602 446C599.803 449.469 597.987 450.93 594 452C591.688 451.625 591.688 451.625 590 451C592.862 448.668 595.557 447.303 599 446C599.33 445.67 599.66 445.34 600 445Z" fill="#245A6A"/>
<path d="M535 404C527.886 409.556 527.886 409.556 523 410C523.33 409.34 523.66 408.68 524 408C524.66 408 525.32 408 526 408C526 407.34 526 406.68 526 406C526.66 406 527.32 406 528 406C528 405.34 528 404.68 528 404C532.75 402.875 532.75 402.875 535 404Z" fill="#325368"/>
<path d="M121 393C121.66 393 122.32 393 123 393C124.125 398.75 124.125 398.75 123 401C123.99 401.33 124.98 401.66 126 402C126 402.66 126 403.32 126 404C122.125 402.125 122.125 402.125 121 401C120.859 398.329 120.958 395.676 121 393Z" fill="#4DACE7"/>
<path d="M372 333C370.836 336.491 370.11 336.852 367.062 338.688C366.352 339.124 365.642 339.561 364.91 340.012C363 341 363 341 361 341C362.056 337.716 363.617 336.428 366.5 334.75C370 333 370 333 372 333Z" fill="#86CD2E"/>
<path d="M490 292C493.59 293.333 496.796 294.894 500 297C500 297.33 500 297.66 500 298C493.375 297.25 493.375 297.25 490 295C490 294.01 490 293.02 490 292Z" fill="#417BF4"/>
<path d="M472 275C472.99 275.33 473.98 275.66 475 276C474.01 276.495 474.01 276.495 473 277C473 278.65 473 280.3 473 282C472.01 282.33 471.02 282.66 470 283C469.312 280.688 469.312 280.688 469 278C470.438 276.188 470.438 276.188 472 275Z" fill="#4786E8"/>
<path d="M507 257C507.66 257.33 508.32 257.66 509 258C506.116 261.408 504.629 262.866 500.188 263.812C498.61 263.905 498.61 263.905 497 264C500.186 261.36 503.31 258.895 507 257Z" fill="#6EB868"/>
<path d="M281 252C286.94 254.475 286.94 254.475 293 257C293 257.33 293 257.66 293 258C290.36 258 287.72 258 285 258C284.67 257.01 284.34 256.02 284 255C283.01 254.67 282.02 254.34 281 254C281 253.34 281 252.68 281 252Z" fill="#7AC55E"/>
<path d="M159 503C160.32 503 161.64 503 163 503C163 503.66 163 504.32 163 505C165.31 505.33 167.62 505.66 170 506C170.33 507.32 170.66 508.64 171 510C166.692 508.434 162.938 506.317 159 504C159 503.67 159 503.34 159 503Z" fill="#85E669"/>
<path d="M281 227C281 227.66 281 228.32 281 229C279.357 230.038 277.688 231.036 276 232C275.34 232.66 274.68 233.32 274 234C272.012 234.398 270.011 234.738 268 235C271.183 231.435 275.963 227 281 227Z" fill="#4FA5BB"/>
<path d="M493 508C493 508.66 493 509.32 493 510C491.345 511.019 489.677 512.018 488 513C487.67 513.66 487.34 514.32 487 515C485.68 514.34 484.36 513.68 483 513C484.288 512.161 485.581 511.329 486.875 510.5C487.594 510.036 488.314 509.572 489.055 509.094C491 508 491 508 493 508Z" fill="#1E506F"/>
<path d="M157 422C162.75 423.875 162.75 423.875 165 425C165 425.66 165 426.32 165 427C165.66 427.33 166.32 427.66 167 428C165.02 428 163.04 428 161 428C160.67 427.01 160.34 426.02 160 425C159.34 425 158.68 425 158 425C157.67 424.01 157.34 423.02 157 422Z" fill="#8FE666"/>
<path d="M281 331C283.31 331 285.62 331 288 331C288.66 332.98 289.32 334.96 290 337C286.063 335.688 283.773 334.081 281 331Z" fill="#6FC966"/>
<path d="M473 277C474.98 277.66 476.96 278.32 479 279C479 279.66 479 280.32 479 281C478.34 281 477.68 281 477 281C477 281.66 477 282.32 477 283C475.68 282.67 474.36 282.34 473 282C473 280.35 473 278.7 473 277Z" fill="#7EC853"/>
<path d="M473 196C473.66 196.33 474.32 196.66 475 197C474.67 197.66 474.34 198.32 474 199C474.639 199.103 475.279 199.206 475.938 199.312C476.618 199.539 477.299 199.766 478 200C478.33 200.99 478.66 201.98 479 203C474.25 202.25 474.25 202.25 472 200C472.375 197.875 472.375 197.875 473 196Z" fill="#73BC69"/>
<path d="M517 172C517 172.66 517 173.32 517 174C514.61 175.66 512.603 176.866 509.75 177.5C509.173 177.665 508.595 177.83 508 178C507.67 178.99 507.34 179.98 507 181C506.01 180.34 505.02 179.68 504 179C504.543 178.662 505.085 178.325 505.645 177.977C506.36 177.531 507.075 177.085 507.812 176.625C508.52 176.184 509.228 175.743 509.957 175.289C515.17 172 515.17 172 517 172Z" fill="#70B869"/>
<path d="M534 157C535.32 157.33 536.64 157.66 538 158C537.375 159.875 537.375 159.875 536 162C532.875 163.25 532.875 163.25 530 164C530 163.34 530 162.68 530 162C530.99 162 531.98 162 533 162C533.33 160.35 533.66 158.7 534 157Z" fill="#4895E9"/>
<path d="M392 154C397.94 154.99 397.94 154.99 404 156C402 158 402 158 399.125 158.375C396 158 396 158 392 154Z" fill="#C0D1FC"/>
<path d="M180 515C185.461 515.352 185.461 515.352 188 516C189.5 518.062 189.5 518.062 190 520C187.812 520.312 187.812 520.312 185 520C182.188 517.5 182.188 517.5 180 515Z" fill="#92DB63"/>
<path d="M143.062 490.687C146 492 146 492 146.875 494.125C146.937 495.053 146.937 495.053 147 496C143.541 494.751 140.853 493.325 138 491C140 490 140 490 143.062 490.687Z" fill="#83EB5B"/>
<path d="M246 392C247.32 392 248.64 392 250 392C250.33 392.66 250.66 393.32 251 394C252.979 394.727 254.98 395.398 257 396C257 396.66 257 397.32 257 398C252.49 397.469 249.616 395.691 246 393C246 392.67 246 392.34 246 392Z" fill="#90DB65"/>
<path d="M221 373C221 373.99 221 374.98 221 376C221.928 376.217 221.928 376.217 222.875 376.438C225 377 225 377 227 378C227 378.66 227 379.32 227 380C222.569 378.792 220.019 377.483 217 374C219 373 219 373 221 373Z" fill="#8BF644"/>
<path d="M363 299C364.32 299.33 365.64 299.66 367 300C367 300.66 367 301.32 367 302C369.475 302.99 369.475 302.99 372 304C368.799 305.6 366.277 304.032 363 303C363 301.68 363 300.36 363 299Z" fill="#79C751"/>
<path d="M578 181C581.3 182.65 584.6 184.3 588 186C588 186.33 588 186.66 588 187C581.375 186.25 581.375 186.25 578 184C578 183.01 578 182.02 578 181Z" fill="#88D134"/>
<path d="M293 339C296.775 340.091 299.47 340.908 302 344C300.68 344.33 299.36 344.66 298 345C297.67 344.01 297.34 343.02 297 342C295.68 342 294.36 342 293 342C293 341.01 293 340.02 293 339Z" fill="#5AA7CC"/>
<path d="M385 328C385 328.66 385 329.32 385 330C382.25 332.188 382.25 332.188 379 334C376.797 333.613 376.797 333.613 375 333C376.288 332.161 377.581 331.329 378.875 330.5C379.594 330.036 380.314 329.572 381.055 329.094C383 328 383 328 385 328Z" fill="#56A0B2"/>
<path d="M660 231C662.31 231.33 664.62 231.66 667 232C667.33 232.99 667.66 233.98 668 235C668.66 235 669.32 235 670 235C670 235.66 670 236.32 670 237C665.25 235.125 665.25 235.125 663 234C663 233.34 663 232.68 663 232C662.01 231.67 661.02 231.34 660 231Z" fill="#95ED1B"/>
<path d="M305 213C305 213.66 305 214.32 305 215C302.25 217.188 302.25 217.188 299 219C296.797 218.613 296.797 218.613 295 218C296.288 217.161 297.581 216.329 298.875 215.5C299.594 215.036 300.314 214.572 301.055 214.094C303 213 303 213 305 213Z" fill="#53A2AC"/>
<path d="M324 196C324.99 196 325.98 196 327 196C327.375 198.25 327.375 198.25 327 201C324 203.312 324 203.312 321 205C320.34 204.67 319.68 204.34 319 204C319.825 203.608 320.65 203.216 321.5 202.812C322.325 202.214 323.15 201.616 324 201C324.418 198.373 324.418 198.373 324 196Z" fill="#6CA772"/>
<path d="M266 643C267.32 643.33 268.64 643.66 270 644C270 644.66 270 645.32 270 646C271.32 646.33 272.64 646.66 274 647C273.67 647.99 273.34 648.98 273 650C270.69 648.68 268.38 647.36 266 646C266 645.01 266 644.02 266 643Z" fill="#469CEB"/>
<path d="M522 412C521.67 412.99 521.34 413.98 521 415C516.545 415.495 516.545 415.495 512 416C515.585 412.415 517.087 412 522 412Z" fill="#3E6A34"/>
<path d="M309 348C310.65 348 312.3 348 314 348C314 348.66 314 349.32 314 350C315.32 350 316.64 350 318 350C318 350.99 318 351.98 318 353C314.225 351.909 311.53 351.092 309 348Z" fill="#72CA73"/>
<path d="M478 284C480.97 284.33 483.94 284.66 487 285C487 286.32 487 287.64 487 289C486.34 289 485.68 289 485 289C485 288.34 485 287.68 485 287C483.824 286.814 483.824 286.814 482.625 286.625C480 286 480 286 478 284Z" fill="#6DCE4D"/>
<path d="M588 187C591.3 188.65 594.6 190.3 598 192C598 192.33 598 192.66 598 193C591.524 192.389 591.524 192.389 589.062 190.562C588 189 588 189 588 187Z" fill="#89D133"/>
<path d="M564 173C567.3 174.65 570.6 176.3 574 178C573.01 178.66 572.02 179.32 571 180C568.133 178.715 566.024 177.429 564 175C564 174.34 564 173.68 564 173Z" fill="#89D335"/>
<path d="M437 700C436 703 436 703 434.152 704.168C433.421 704.504 432.691 704.841 431.938 705.188C431.204 705.532 430.471 705.876 429.715 706.23C428.866 706.611 428.866 706.611 428 707C427.67 706.34 427.34 705.68 427 705C428.32 704.67 429.64 704.34 431 704C431 703.34 431 702.68 431 702C434.75 700 434.75 700 437 700Z" fill="#9CA39F"/>
<path d="M535 403C535.99 403.33 536.98 403.66 538 404C535.03 405.98 532.06 407.96 529 410C528.34 409.67 527.68 409.34 527 409C528.261 407.967 529.534 406.949 530.812 405.938C531.52 405.369 532.228 404.801 532.957 404.215C533.631 403.814 534.305 403.413 535 403Z" fill="#4C780D"/>
<path d="M321 355C323.31 355 325.62 355 328 355C327.67 356.32 327.34 357.64 327 359C328.65 359 330.3 359 332 359C332 359.33 332 359.66 332 360C329.312 360.312 329.312 360.312 326 360C323.125 357.5 323.125 357.5 321 355Z" fill="#6AC27F"/>
<path d="M364 339C364.66 339.33 365.32 339.66 366 340C361.703 344.004 361.703 344.004 360 345C357.797 344.652 357.797 344.652 356 344C357.285 343.136 358.578 342.284 359.875 341.438C360.954 340.724 360.954 340.724 362.055 339.996C362.697 339.667 363.339 339.339 364 339Z" fill="#55A4B1"/>
<path d="M513 336C511.732 336.816 510.46 337.628 509.188 338.437C508.126 339.116 508.126 339.116 507.043 339.809C505 341 505 341 502 342C502 341.34 502 340.68 502 340C503.645 338.676 503.645 338.676 505.812 337.312C506.52 336.855 507.228 336.397 507.957 335.926C510 335 510 335 513 336Z" fill="#2779DF"/>
<path d="M514 338C511.062 340.503 508.821 341.469 505 342C505 341.34 505 340.68 505 340C510.625 336.875 510.625 336.875 514 338Z" fill="#183B81"/>
<path d="M124 306C124.33 306 124.66 306 125 306C125 309.63 125 313.26 125 317C124.01 316.01 123.02 315.02 122 314C122.202 311.151 123.144 308.749 124 306Z" fill="#94FD42"/>
<path d="M525 233C528.821 233.531 531.062 234.497 534 237C533.67 237.99 533.34 238.98 533 240C532.34 239.67 531.68 239.34 531 239C531 238.34 531 237.68 531 237C530.196 236.711 529.391 236.423 528.562 236.125C526 235 526 235 525 233Z" fill="#3A7AF8"/>
<path d="M488 207C490.625 207.938 490.625 207.938 493 209C493 209.99 493 210.98 493 212C490.98 211.398 488.979 210.727 487 210C486.67 209.34 486.34 208.68 486 208C486.66 207.67 487.32 207.34 488 207Z" fill="#6CC559"/>
<path d="M444 132C444.66 132.33 445.32 132.66 446 133C443.99 136.015 443.293 136.838 440 138C437.867 137.547 437.867 137.547 436 137C437.285 136.136 438.578 135.284 439.875 134.438C440.954 133.724 440.954 133.724 442.055 132.996C442.697 132.667 443.339 132.339 444 132Z" fill="#5C9CF9"/>
<path d="M488 129C491.3 130.65 494.6 132.3 498 134C494 135 494 135 490.75 133.188C489.842 132.466 488.935 131.744 488 131C488 130.34 488 129.68 488 129Z" fill="#3C7FDD"/>
<path d="M331 588C331.33 588 331.66 588 332 588C332.168 590.104 332.334 592.208 332.5 594.312C332.593 595.484 332.686 596.656 332.781 597.863C332.924 599.905 333 601.953 333 604C332.34 603.67 331.68 603.34 331 603C331 598.05 331 593.1 331 588Z" fill="#5C9DF9"/>
<path d="M177 433C181.167 433.473 183.929 434.047 187 437C187 437.66 187 438.32 187 439C186.34 439 185.68 439 185 439C185 438.34 185 437.68 185 437C184.051 436.711 183.103 436.423 182.125 436.125C179 435 179 435 177 433Z" fill="#5DBFD9"/>
<path d="M121 401C124.96 402.98 124.96 402.98 129 405C127 406 127 406 123 406C122.34 406.66 121.68 407.32 121 408C121 405.69 121 403.38 121 401Z" fill="#9BE76A"/>
<path d="M321 356C324.151 357.838 327.12 359.76 330 362C328.68 362.33 327.36 362.66 326 363C326 362.34 326 361.68 326 361C325.361 360.732 324.721 360.464 324.062 360.188C322 359 322 359 321 356Z" fill="#4895F5"/>
<path d="M342 352C344.188 352.312 344.188 352.312 346 353C345.67 353.99 345.34 354.98 345 356C342.03 355.505 342.03 355.505 339 355C340.25 353.438 340.25 353.438 342 352Z" fill="#4797D9"/>
<path d="M293 336C293.33 336.66 293.66 337.32 294 338C297.029 338.658 297.029 338.658 300 339C299.67 339.66 299.34 340.32 299 341C296.03 340.01 293.06 339.02 290 338C290.99 337.34 291.98 336.68 293 336Z" fill="#71CF57"/>
<path d="M133 327C135.64 327.33 138.28 327.66 141 328C141.33 329.32 141.66 330.64 142 332C138.225 330.909 135.53 330.092 133 327Z" fill="#7CE167"/>
<path d="M140 228C140.99 228.33 141.98 228.66 143 229C141.02 231.97 141.02 231.97 139 235C137 234 137 234 136 232C137.32 230.68 138.64 229.36 140 228Z" fill="#88DF25"/>
<path d="M312 128C312.66 128.33 313.32 128.66 314 129C311.174 133.238 308.878 132.977 304 134C306.366 131.385 308.86 129.61 312 128Z" fill="#3679D4"/>
<path d="M290 657C292.36 657.936 294.696 658.933 297 660C295.02 660.99 295.02 660.99 293 662C291.35 660.68 289.7 659.36 288 658C288.66 657.67 289.32 657.34 290 657Z" fill="#439AE7"/>
<path d="M660 491C662.312 491.812 662.312 491.812 664 493C659.569 495.092 659.569 495.092 656.688 494.625C656.131 494.419 655.574 494.213 655 494C657.25 492.375 657.25 492.375 660 491Z" fill="#235271"/>
<path d="M168 428C172.455 429.98 172.455 429.98 177 432C175.02 432.99 175.02 432.99 173 434C172.01 433.67 171.02 433.34 170 433C170 432.01 170 431.02 170 430C169.34 430 168.68 430 168 430C168 429.34 168 428.68 168 428Z" fill="#91E85B"/>
<path d="M529 314C530.98 314 532.96 314 535 314C535.66 315.65 536.32 317.3 537 319C533.625 317.814 531.353 316.724 529 314Z" fill="#6BC05A"/>
<path d="M366 303C368.97 303.99 371.94 304.98 375 306C374.67 306.66 374.34 307.32 374 308C370.562 307.188 370.562 307.188 367 306C366.67 305.01 366.34 304.02 366 303Z" fill="#7CD324"/>
<path d="M530 234C531.98 234.66 533.96 235.32 536 236C536.33 237.65 536.66 239.3 537 241C536.01 241.495 536.01 241.495 535 242C534.917 241.216 534.835 240.433 534.75 239.625C534.272 236.853 534.272 236.853 531.938 235.688C531.298 235.461 530.659 235.234 530 235C530 234.67 530 234.34 530 234Z" fill="#529FA6"/>
<path d="M321.312 124.313C321.869 124.539 322.426 124.766 323 125C321.02 126.32 319.04 127.64 317 129C316.01 128.34 315.02 127.68 314 127C318.431 123.923 318.431 123.923 321.312 124.313Z" fill="#3D87E3"/>
<path d="M241 387C243.31 387.66 245.62 388.32 248 389C248 389.66 248 390.32 248 391C248.66 391.33 249.32 391.66 250 392C246.656 391.443 243.967 390.648 241 389C241 388.34 241 387.68 241 387Z" fill="#90FB30"/>
<path d="M461 365C461.66 365.33 462.32 365.66 463 366C460.605 368.899 458.688 369.502 455 370C458.75 366.125 458.75 366.125 461 365Z" fill="#1E49A0"/>
<path d="M302 344C303.98 344 305.96 344 308 344C308.33 345.32 308.66 346.64 309 348C306.98 347.398 304.979 346.727 303 346C302.67 345.34 302.34 344.68 302 344Z" fill="#6EC678"/>
<path d="M636.312 264.313C636.869 264.539 637.426 264.766 638 265C633.569 268.077 633.569 268.077 630.688 267.688C629.852 267.347 629.852 267.347 629 267C633.431 263.923 633.431 263.923 636.312 264.313Z" fill="#579713"/>
<path d="M493 212C494.65 212 496.3 212 498 212C498 212.66 498 213.32 498 214C498.66 214 499.32 214 500 214C500.33 214.99 500.66 215.98 501 217C497.625 215.814 495.353 214.724 493 212Z" fill="#6ABD6C"/>
<path d="M609 201C611.31 201.33 613.62 201.66 616 202C616 202.99 616 203.98 616 205C614.35 204.67 612.7 204.34 611 204C611 203.34 611 202.68 611 202C610.34 201.67 609.68 201.34 609 201Z" fill="#8FE130"/>
<path d="M263 163C264.65 163 266.3 163 268 163C268.66 164.65 269.32 166.3 270 168C267.69 166.68 265.38 165.36 263 164C263 163.67 263 163.34 263 163Z" fill="#83D41C"/>
</svg>
